G04 #@! TF.FileFunction,Legend,Top*
%FSLAX46Y46*%
G04 Gerber Fmt 4.6, Leading zero omitted, Abs format (unit mm)*
G04 Created by KiCad (PCBNEW 4.0.7) date 09/30/17 17:29:36*
%MOMM*%
%LPD*%
G01*
G04 APERTURE LIST*
%ADD10C,0.100000*%
%ADD11C,0.150000*%
%ADD12C,0.300000*%
%ADD13C,0.400000*%
%ADD14C,0.120000*%
%ADD15R,2.800000X2.800000*%
%ADD16C,2.800000*%
%ADD17C,1.924000*%
%ADD18R,1.924000X1.924000*%
G04 APERTURE END LIST*
D10*
D11*
X177002200Y-166007200D02*
X177002200Y-198007200D01*
X285002200Y-198007200D01*
X285002200Y-166007200D01*
X177002200Y-166007200D01*
D10*
D11*
X10000000Y-10000000D02*
X10000000Y-200007200D01*
X287002200Y-200007200D01*
X287002200Y-10000000D01*
X10000000Y-10000000D01*
D10*
D11*
X12000000Y-12000000D02*
X12000000Y-198007200D01*
X285002200Y-198007200D01*
X285002200Y-12000000D01*
X12000000Y-12000000D01*
D10*
D11*
X60000000Y-12000000D02*
X60000000Y-10000000D01*
D10*
D11*
X110000000Y-12000000D02*
X110000000Y-10000000D01*
D10*
D11*
X160000000Y-12000000D02*
X160000000Y-10000000D01*
D10*
D11*
X210000000Y-12000000D02*
X210000000Y-10000000D01*
D10*
D11*
X260000000Y-12000000D02*
X260000000Y-10000000D01*
D10*
D11*
X35990476Y-11588095D02*
X35247619Y-11588095D01*
X35619048Y-11588095D02*
X35619048Y-10288095D01*
X35495238Y-10473810D01*
X35371429Y-10597619D01*
X35247619Y-10659524D01*
D10*
D11*
X85247619Y-10411905D02*
X85309524Y-10350000D01*
X85433333Y-10288095D01*
X85742857Y-10288095D01*
X85866667Y-10350000D01*
X85928571Y-10411905D01*
X85990476Y-10535714D01*
X85990476Y-10659524D01*
X85928571Y-10845238D01*
X85185714Y-11588095D01*
X85990476Y-11588095D01*
D10*
D11*
X135185714Y-10288095D02*
X135990476Y-10288095D01*
X135557143Y-10783333D01*
X135742857Y-10783333D01*
X135866667Y-10845238D01*
X135928571Y-10907143D01*
X135990476Y-11030952D01*
X135990476Y-11340476D01*
X135928571Y-11464286D01*
X135866667Y-11526190D01*
X135742857Y-11588095D01*
X135371429Y-11588095D01*
X135247619Y-11526190D01*
X135185714Y-11464286D01*
D10*
D11*
X185866667Y-10721429D02*
X185866667Y-11588095D01*
X185557143Y-10226190D02*
X185247619Y-11154762D01*
X186052381Y-11154762D01*
D10*
D11*
X235928571Y-10288095D02*
X235309524Y-10288095D01*
X235247619Y-10907143D01*
X235309524Y-10845238D01*
X235433333Y-10783333D01*
X235742857Y-10783333D01*
X235866667Y-10845238D01*
X235928571Y-10907143D01*
X235990476Y-11030952D01*
X235990476Y-11340476D01*
X235928571Y-11464286D01*
X235866667Y-11526190D01*
X235742857Y-11588095D01*
X235433333Y-11588095D01*
X235309524Y-11526190D01*
X235247619Y-11464286D01*
D10*
D11*
X285866667Y-10288095D02*
X285619048Y-10288095D01*
X285495238Y-10350000D01*
X285433333Y-10411905D01*
X285309524Y-10597619D01*
X285247619Y-10845238D01*
X285247619Y-11340476D01*
X285309524Y-11464286D01*
X285371429Y-11526190D01*
X285495238Y-11588095D01*
X285742857Y-11588095D01*
X285866667Y-11526190D01*
X285928571Y-11464286D01*
X285990476Y-11340476D01*
X285990476Y-11030952D01*
X285928571Y-10907143D01*
X285866667Y-10845238D01*
X285742857Y-10783333D01*
X285495238Y-10783333D01*
X285371429Y-10845238D01*
X285309524Y-10907143D01*
X285247619Y-11030952D01*
D10*
D11*
X60000000Y-198007200D02*
X60000000Y-200007200D01*
D10*
D11*
X110000000Y-198007200D02*
X110000000Y-200007200D01*
D10*
D11*
X160000000Y-198007200D02*
X160000000Y-200007200D01*
D10*
D11*
X210000000Y-198007200D02*
X210000000Y-200007200D01*
D10*
D11*
X260000000Y-198007200D02*
X260000000Y-200007200D01*
D10*
D11*
X35990476Y-199595295D02*
X35247619Y-199595295D01*
X35619048Y-199595295D02*
X35619048Y-198295295D01*
X35495238Y-198481010D01*
X35371429Y-198604819D01*
X35247619Y-198666724D01*
D10*
D11*
X85247619Y-198419105D02*
X85309524Y-198357200D01*
X85433333Y-198295295D01*
X85742857Y-198295295D01*
X85866667Y-198357200D01*
X85928571Y-198419105D01*
X85990476Y-198542914D01*
X85990476Y-198666724D01*
X85928571Y-198852438D01*
X85185714Y-199595295D01*
X85990476Y-199595295D01*
D10*
D11*
X135185714Y-198295295D02*
X135990476Y-198295295D01*
X135557143Y-198790533D01*
X135742857Y-198790533D01*
X135866667Y-198852438D01*
X135928571Y-198914343D01*
X135990476Y-199038152D01*
X135990476Y-199347676D01*
X135928571Y-199471486D01*
X135866667Y-199533390D01*
X135742857Y-199595295D01*
X135371429Y-199595295D01*
X135247619Y-199533390D01*
X135185714Y-199471486D01*
D10*
D11*
X185866667Y-198728629D02*
X185866667Y-199595295D01*
X185557143Y-198233390D02*
X185247619Y-199161962D01*
X186052381Y-199161962D01*
D10*
D11*
X235928571Y-198295295D02*
X235309524Y-198295295D01*
X235247619Y-198914343D01*
X235309524Y-198852438D01*
X235433333Y-198790533D01*
X235742857Y-198790533D01*
X235866667Y-198852438D01*
X235928571Y-198914343D01*
X235990476Y-199038152D01*
X235990476Y-199347676D01*
X235928571Y-199471486D01*
X235866667Y-199533390D01*
X235742857Y-199595295D01*
X235433333Y-199595295D01*
X235309524Y-199533390D01*
X235247619Y-199471486D01*
D10*
D11*
X285866667Y-198295295D02*
X285619048Y-198295295D01*
X285495238Y-198357200D01*
X285433333Y-198419105D01*
X285309524Y-198604819D01*
X285247619Y-198852438D01*
X285247619Y-199347676D01*
X285309524Y-199471486D01*
X285371429Y-199533390D01*
X285495238Y-199595295D01*
X285742857Y-199595295D01*
X285866667Y-199533390D01*
X285928571Y-199471486D01*
X285990476Y-199347676D01*
X285990476Y-199038152D01*
X285928571Y-198914343D01*
X285866667Y-198852438D01*
X285742857Y-198790533D01*
X285495238Y-198790533D01*
X285371429Y-198852438D01*
X285309524Y-198914343D01*
X285247619Y-199038152D01*
D10*
D11*
X10000000Y-60000000D02*
X12000000Y-60000000D01*
D10*
D11*
X10000000Y-110000000D02*
X12000000Y-110000000D01*
D10*
D11*
X10000000Y-160000000D02*
X12000000Y-160000000D01*
D10*
D11*
X10690476Y-35216667D02*
X11309524Y-35216667D01*
X10566667Y-35588095D02*
X11000000Y-34288095D01*
X11433333Y-35588095D01*
D10*
D11*
X11092857Y-84907143D02*
X11278571Y-84969048D01*
X11340476Y-85030952D01*
X11402381Y-85154762D01*
X11402381Y-85340476D01*
X11340476Y-85464286D01*
X11278571Y-85526190D01*
X11154762Y-85588095D01*
X10659524Y-85588095D01*
X10659524Y-84288095D01*
X11092857Y-84288095D01*
X11216667Y-84350000D01*
X11278571Y-84411905D01*
X11340476Y-84535714D01*
X11340476Y-84659524D01*
X11278571Y-84783333D01*
X11216667Y-84845238D01*
X11092857Y-84907143D01*
X10659524Y-84907143D01*
D10*
D11*
X11402381Y-135464286D02*
X11340476Y-135526190D01*
X11154762Y-135588095D01*
X11030952Y-135588095D01*
X10845238Y-135526190D01*
X10721429Y-135402381D01*
X10659524Y-135278571D01*
X10597619Y-135030952D01*
X10597619Y-134845238D01*
X10659524Y-134597619D01*
X10721429Y-134473810D01*
X10845238Y-134350000D01*
X11030952Y-134288095D01*
X11154762Y-134288095D01*
X11340476Y-134350000D01*
X11402381Y-134411905D01*
D10*
D11*
X10659524Y-185588095D02*
X10659524Y-184288095D01*
X10969048Y-184288095D01*
X11154762Y-184350000D01*
X11278571Y-184473810D01*
X11340476Y-184597619D01*
X11402381Y-184845238D01*
X11402381Y-185030952D01*
X11340476Y-185278571D01*
X11278571Y-185402381D01*
X11154762Y-185526190D01*
X10969048Y-185588095D01*
X10659524Y-185588095D01*
D10*
D11*
X287002200Y-60000000D02*
X285002200Y-60000000D01*
D10*
D11*
X287002200Y-110000000D02*
X285002200Y-110000000D01*
D10*
D11*
X287002200Y-160000000D02*
X285002200Y-160000000D01*
D10*
D11*
X285692676Y-35216667D02*
X286311724Y-35216667D01*
X285568867Y-35588095D02*
X286002200Y-34288095D01*
X286435533Y-35588095D01*
D10*
D11*
X286095057Y-84907143D02*
X286280771Y-84969048D01*
X286342676Y-85030952D01*
X286404581Y-85154762D01*
X286404581Y-85340476D01*
X286342676Y-85464286D01*
X286280771Y-85526190D01*
X286156962Y-85588095D01*
X285661724Y-85588095D01*
X285661724Y-84288095D01*
X286095057Y-84288095D01*
X286218867Y-84350000D01*
X286280771Y-84411905D01*
X286342676Y-84535714D01*
X286342676Y-84659524D01*
X286280771Y-84783333D01*
X286218867Y-84845238D01*
X286095057Y-84907143D01*
X285661724Y-84907143D01*
D10*
D11*
X286404581Y-135464286D02*
X286342676Y-135526190D01*
X286156962Y-135588095D01*
X286033152Y-135588095D01*
X285847438Y-135526190D01*
X285723629Y-135402381D01*
X285661724Y-135278571D01*
X285599819Y-135030952D01*
X285599819Y-134845238D01*
X285661724Y-134597619D01*
X285723629Y-134473810D01*
X285847438Y-134350000D01*
X286033152Y-134288095D01*
X286156962Y-134288095D01*
X286342676Y-134350000D01*
X286404581Y-134411905D01*
D10*
D11*
X285661724Y-185588095D02*
X285661724Y-184288095D01*
X285971248Y-184288095D01*
X286156962Y-184350000D01*
X286280771Y-184473810D01*
X286342676Y-184597619D01*
X286404581Y-184845238D01*
X286404581Y-185030952D01*
X286342676Y-185278571D01*
X286280771Y-185402381D01*
X286156962Y-185526190D01*
X285971248Y-185588095D01*
X285661724Y-185588095D01*
D10*
D11*
X200359343Y-193785771D02*
X200359343Y-192285771D01*
X200716486Y-192285771D01*
X200930771Y-192357200D01*
X201073629Y-192500057D01*
X201145057Y-192642914D01*
X201216486Y-192928629D01*
X201216486Y-193142914D01*
X201145057Y-193428629D01*
X201073629Y-193571486D01*
X200930771Y-193714343D01*
X200716486Y-193785771D01*
X200359343Y-193785771D01*
X202502200Y-193785771D02*
X202502200Y-193000057D01*
X202430771Y-192857200D01*
X202287914Y-192785771D01*
X202002200Y-192785771D01*
X201859343Y-192857200D01*
X202502200Y-193714343D02*
X202359343Y-193785771D01*
X202002200Y-193785771D01*
X201859343Y-193714343D01*
X201787914Y-193571486D01*
X201787914Y-193428629D01*
X201859343Y-193285771D01*
X202002200Y-193214343D01*
X202359343Y-193214343D01*
X202502200Y-193142914D01*
X203002200Y-192785771D02*
X203573629Y-192785771D01*
X203216486Y-192285771D02*
X203216486Y-193571486D01*
X203287914Y-193714343D01*
X203430772Y-193785771D01*
X203573629Y-193785771D01*
X204645057Y-193714343D02*
X204502200Y-193785771D01*
X204216486Y-193785771D01*
X204073629Y-193714343D01*
X204002200Y-193571486D01*
X204002200Y-193000057D01*
X204073629Y-192857200D01*
X204216486Y-192785771D01*
X204502200Y-192785771D01*
X204645057Y-192857200D01*
X204716486Y-193000057D01*
X204716486Y-193142914D01*
X204002200Y-193285771D01*
X205359343Y-193642914D02*
X205430771Y-193714343D01*
X205359343Y-193785771D01*
X205287914Y-193714343D01*
X205359343Y-193642914D01*
X205359343Y-193785771D01*
X205359343Y-192857200D02*
X205430771Y-192928629D01*
X205359343Y-193000057D01*
X205287914Y-192928629D01*
X205359343Y-192857200D01*
X205359343Y-193000057D01*
D10*
D11*
X177002200Y-194507200D02*
X285002200Y-194507200D01*
D10*
D11*
X178359343Y-196585771D02*
X178359343Y-195085771D01*
X179216486Y-196585771D02*
X178573629Y-195728629D01*
X179216486Y-195085771D02*
X178359343Y-195942914D01*
X179859343Y-196585771D02*
X179859343Y-195585771D01*
X179859343Y-195085771D02*
X179787914Y-195157200D01*
X179859343Y-195228629D01*
X179930771Y-195157200D01*
X179859343Y-195085771D01*
X179859343Y-195228629D01*
X181430772Y-196442914D02*
X181359343Y-196514343D01*
X181145057Y-196585771D01*
X181002200Y-196585771D01*
X180787915Y-196514343D01*
X180645057Y-196371486D01*
X180573629Y-196228629D01*
X180502200Y-195942914D01*
X180502200Y-195728629D01*
X180573629Y-195442914D01*
X180645057Y-195300057D01*
X180787915Y-195157200D01*
X181002200Y-195085771D01*
X181145057Y-195085771D01*
X181359343Y-195157200D01*
X181430772Y-195228629D01*
X182716486Y-196585771D02*
X182716486Y-195800057D01*
X182645057Y-195657200D01*
X182502200Y-195585771D01*
X182216486Y-195585771D01*
X182073629Y-195657200D01*
X182716486Y-196514343D02*
X182573629Y-196585771D01*
X182216486Y-196585771D01*
X182073629Y-196514343D01*
X182002200Y-196371486D01*
X182002200Y-196228629D01*
X182073629Y-196085771D01*
X182216486Y-196014343D01*
X182573629Y-196014343D01*
X182716486Y-195942914D01*
X184073629Y-196585771D02*
X184073629Y-195085771D01*
X184073629Y-196514343D02*
X183930772Y-196585771D01*
X183645058Y-196585771D01*
X183502200Y-196514343D01*
X183430772Y-196442914D01*
X183359343Y-196300057D01*
X183359343Y-195871486D01*
X183430772Y-195728629D01*
X183502200Y-195657200D01*
X183645058Y-195585771D01*
X183930772Y-195585771D01*
X184073629Y-195657200D01*
X185930772Y-195800057D02*
X186430772Y-195800057D01*
X186645058Y-196585771D02*
X185930772Y-196585771D01*
X185930772Y-195085771D01*
X186645058Y-195085771D01*
X187287915Y-196442914D02*
X187359343Y-196514343D01*
X187287915Y-196585771D01*
X187216486Y-196514343D01*
X187287915Y-196442914D01*
X187287915Y-196585771D01*
X188002201Y-196585771D02*
X188002201Y-195085771D01*
X188359344Y-195085771D01*
X188573629Y-195157200D01*
X188716487Y-195300057D01*
X188787915Y-195442914D01*
X188859344Y-195728629D01*
X188859344Y-195942914D01*
X188787915Y-196228629D01*
X188716487Y-196371486D01*
X188573629Y-196514343D01*
X188359344Y-196585771D01*
X188002201Y-196585771D01*
X189502201Y-196442914D02*
X189573629Y-196514343D01*
X189502201Y-196585771D01*
X189430772Y-196514343D01*
X189502201Y-196442914D01*
X189502201Y-196585771D01*
X190145058Y-196157200D02*
X190859344Y-196157200D01*
X190002201Y-196585771D02*
X190502201Y-195085771D01*
X191002201Y-196585771D01*
X191502201Y-196442914D02*
X191573629Y-196514343D01*
X191502201Y-196585771D01*
X191430772Y-196514343D01*
X191502201Y-196442914D01*
X191502201Y-196585771D01*
X194502201Y-196585771D02*
X194502201Y-195085771D01*
X194645058Y-196014343D02*
X195073629Y-196585771D01*
X195073629Y-195585771D02*
X194502201Y-196157200D01*
X195716487Y-196585771D02*
X195716487Y-195585771D01*
X195716487Y-195085771D02*
X195645058Y-195157200D01*
X195716487Y-195228629D01*
X195787915Y-195157200D01*
X195716487Y-195085771D01*
X195716487Y-195228629D01*
X197073630Y-196514343D02*
X196930773Y-196585771D01*
X196645059Y-196585771D01*
X196502201Y-196514343D01*
X196430773Y-196442914D01*
X196359344Y-196300057D01*
X196359344Y-195871486D01*
X196430773Y-195728629D01*
X196502201Y-195657200D01*
X196645059Y-195585771D01*
X196930773Y-195585771D01*
X197073630Y-195657200D01*
X198359344Y-196585771D02*
X198359344Y-195800057D01*
X198287915Y-195657200D01*
X198145058Y-195585771D01*
X197859344Y-195585771D01*
X197716487Y-195657200D01*
X198359344Y-196514343D02*
X198216487Y-196585771D01*
X197859344Y-196585771D01*
X197716487Y-196514343D01*
X197645058Y-196371486D01*
X197645058Y-196228629D01*
X197716487Y-196085771D01*
X197859344Y-196014343D01*
X198216487Y-196014343D01*
X198359344Y-195942914D01*
X199716487Y-196585771D02*
X199716487Y-195085771D01*
X199716487Y-196514343D02*
X199573630Y-196585771D01*
X199287916Y-196585771D01*
X199145058Y-196514343D01*
X199073630Y-196442914D01*
X199002201Y-196300057D01*
X199002201Y-195871486D01*
X199073630Y-195728629D01*
X199145058Y-195657200D01*
X199287916Y-195585771D01*
X199573630Y-195585771D01*
X199716487Y-195657200D01*
X202216487Y-195585771D02*
X202216487Y-196585771D01*
X201859344Y-195014343D02*
X201502201Y-196085771D01*
X202430773Y-196085771D01*
X203002201Y-196442914D02*
X203073629Y-196514343D01*
X203002201Y-196585771D01*
X202930772Y-196514343D01*
X203002201Y-196442914D01*
X203002201Y-196585771D01*
X204002201Y-195085771D02*
X204145058Y-195085771D01*
X204287915Y-195157200D01*
X204359344Y-195228629D01*
X204430773Y-195371486D01*
X204502201Y-195657200D01*
X204502201Y-196014343D01*
X204430773Y-196300057D01*
X204359344Y-196442914D01*
X204287915Y-196514343D01*
X204145058Y-196585771D01*
X204002201Y-196585771D01*
X203859344Y-196514343D01*
X203787915Y-196442914D01*
X203716487Y-196300057D01*
X203645058Y-196014343D01*
X203645058Y-195657200D01*
X203716487Y-195371486D01*
X203787915Y-195228629D01*
X203859344Y-195157200D01*
X204002201Y-195085771D01*
X205145058Y-196442914D02*
X205216486Y-196514343D01*
X205145058Y-196585771D01*
X205073629Y-196514343D01*
X205145058Y-196442914D01*
X205145058Y-196585771D01*
X205716487Y-195085771D02*
X206716487Y-195085771D01*
X206073630Y-196585771D01*
D10*
D11*
X177002200Y-191507200D02*
X285002200Y-191507200D01*
D10*
D12*
X264216486Y-193785771D02*
X263716486Y-193071486D01*
X263359343Y-193785771D02*
X263359343Y-192285771D01*
X263930771Y-192285771D01*
X264073629Y-192357200D01*
X264145057Y-192428629D01*
X264216486Y-192571486D01*
X264216486Y-192785771D01*
X264145057Y-192928629D01*
X264073629Y-193000057D01*
X263930771Y-193071486D01*
X263359343Y-193071486D01*
X265430771Y-193714343D02*
X265287914Y-193785771D01*
X265002200Y-193785771D01*
X264859343Y-193714343D01*
X264787914Y-193571486D01*
X264787914Y-193000057D01*
X264859343Y-192857200D01*
X265002200Y-192785771D01*
X265287914Y-192785771D01*
X265430771Y-192857200D01*
X265502200Y-193000057D01*
X265502200Y-193142914D01*
X264787914Y-193285771D01*
X266002200Y-192785771D02*
X266359343Y-193785771D01*
X266716485Y-192785771D01*
X267287914Y-193642914D02*
X267359342Y-193714343D01*
X267287914Y-193785771D01*
X267216485Y-193714343D01*
X267287914Y-193642914D01*
X267287914Y-193785771D01*
X267287914Y-192857200D02*
X267359342Y-192928629D01*
X267287914Y-193000057D01*
X267216485Y-192928629D01*
X267287914Y-192857200D01*
X267287914Y-193000057D01*
D10*
D11*
X178287914Y-193714343D02*
X178502200Y-193785771D01*
X178859343Y-193785771D01*
X179002200Y-193714343D01*
X179073629Y-193642914D01*
X179145057Y-193500057D01*
X179145057Y-193357200D01*
X179073629Y-193214343D01*
X179002200Y-193142914D01*
X178859343Y-193071486D01*
X178573629Y-193000057D01*
X178430771Y-192928629D01*
X178359343Y-192857200D01*
X178287914Y-192714343D01*
X178287914Y-192571486D01*
X178359343Y-192428629D01*
X178430771Y-192357200D01*
X178573629Y-192285771D01*
X178930771Y-192285771D01*
X179145057Y-192357200D01*
X179787914Y-193785771D02*
X179787914Y-192785771D01*
X179787914Y-192285771D02*
X179716485Y-192357200D01*
X179787914Y-192428629D01*
X179859342Y-192357200D01*
X179787914Y-192285771D01*
X179787914Y-192428629D01*
X180359343Y-192785771D02*
X181145057Y-192785771D01*
X180359343Y-193785771D01*
X181145057Y-193785771D01*
X182287914Y-193714343D02*
X182145057Y-193785771D01*
X181859343Y-193785771D01*
X181716486Y-193714343D01*
X181645057Y-193571486D01*
X181645057Y-193000057D01*
X181716486Y-192857200D01*
X181859343Y-192785771D01*
X182145057Y-192785771D01*
X182287914Y-192857200D01*
X182359343Y-193000057D01*
X182359343Y-193142914D01*
X181645057Y-193285771D01*
X183002200Y-193642914D02*
X183073628Y-193714343D01*
X183002200Y-193785771D01*
X182930771Y-193714343D01*
X183002200Y-193642914D01*
X183002200Y-193785771D01*
X183002200Y-192857200D02*
X183073628Y-192928629D01*
X183002200Y-193000057D01*
X182930771Y-192928629D01*
X183002200Y-192857200D01*
X183002200Y-193000057D01*
X184787914Y-193357200D02*
X185502200Y-193357200D01*
X184645057Y-193785771D02*
X185145057Y-192285771D01*
X185645057Y-193785771D01*
X186787914Y-192785771D02*
X186787914Y-193785771D01*
X186430771Y-192214343D02*
X186073628Y-193285771D01*
X187002200Y-193285771D01*
D10*
D11*
X263359343Y-196585771D02*
X263359343Y-195085771D01*
X264716486Y-196585771D02*
X264716486Y-195085771D01*
X264716486Y-196514343D02*
X264573629Y-196585771D01*
X264287915Y-196585771D01*
X264145057Y-196514343D01*
X264073629Y-196442914D01*
X264002200Y-196300057D01*
X264002200Y-195871486D01*
X264073629Y-195728629D01*
X264145057Y-195657200D01*
X264287915Y-195585771D01*
X264573629Y-195585771D01*
X264716486Y-195657200D01*
X265430772Y-196442914D02*
X265502200Y-196514343D01*
X265430772Y-196585771D01*
X265359343Y-196514343D01*
X265430772Y-196442914D01*
X265430772Y-196585771D01*
X265430772Y-195657200D02*
X265502200Y-195728629D01*
X265430772Y-195800057D01*
X265359343Y-195728629D01*
X265430772Y-195657200D01*
X265430772Y-195800057D01*
X268073629Y-196585771D02*
X267216486Y-196585771D01*
X267645058Y-196585771D02*
X267645058Y-195085771D01*
X267502201Y-195300057D01*
X267359343Y-195442914D01*
X267216486Y-195514343D01*
X269787914Y-195014343D02*
X268502200Y-196942914D01*
X271073629Y-196585771D02*
X270216486Y-196585771D01*
X270645058Y-196585771D02*
X270645058Y-195085771D01*
X270502201Y-195300057D01*
X270359343Y-195442914D01*
X270216486Y-195514343D01*
D10*
D11*
X177002200Y-187507200D02*
X285002200Y-187507200D01*
D10*
D13*
X178454581Y-188211962D02*
X179597438Y-188211962D01*
X178776010Y-190211962D02*
X179026010Y-188211962D01*
X180014105Y-190211962D02*
X180180771Y-188878629D01*
X180264105Y-188211962D02*
X180156962Y-188307200D01*
X180240295Y-188402438D01*
X180347439Y-188307200D01*
X180264105Y-188211962D01*
X180240295Y-188402438D01*
X180847438Y-188878629D02*
X181609343Y-188878629D01*
X181216486Y-188211962D02*
X181002200Y-189926248D01*
X181073630Y-190116724D01*
X181252201Y-190211962D01*
X181442677Y-190211962D01*
X182395058Y-190211962D02*
X182216487Y-190116724D01*
X182145057Y-189926248D01*
X182359343Y-188211962D01*
X183930772Y-190116724D02*
X183728391Y-190211962D01*
X183347439Y-190211962D01*
X183168867Y-190116724D01*
X183097438Y-189926248D01*
X183192676Y-189164343D01*
X183311724Y-188973867D01*
X183514105Y-188878629D01*
X183895057Y-188878629D01*
X184073629Y-188973867D01*
X184145057Y-189164343D01*
X184121248Y-189354819D01*
X183145057Y-189545295D01*
X184895057Y-190021486D02*
X184978392Y-190116724D01*
X184871248Y-190211962D01*
X184787915Y-190116724D01*
X184895057Y-190021486D01*
X184871248Y-190211962D01*
X185026010Y-188973867D02*
X185109344Y-189069105D01*
X185002200Y-189164343D01*
X184918867Y-189069105D01*
X185026010Y-188973867D01*
X185002200Y-189164343D01*
D10*
D11*
X178859343Y-185600057D02*
X178359343Y-185600057D01*
X178359343Y-186385771D02*
X178359343Y-184885771D01*
X179073629Y-184885771D01*
X179645057Y-186385771D02*
X179645057Y-185385771D01*
X179645057Y-184885771D02*
X179573628Y-184957200D01*
X179645057Y-185028629D01*
X179716485Y-184957200D01*
X179645057Y-184885771D01*
X179645057Y-185028629D01*
X180573629Y-186385771D02*
X180430771Y-186314343D01*
X180359343Y-186171486D01*
X180359343Y-184885771D01*
X181716485Y-186314343D02*
X181573628Y-186385771D01*
X181287914Y-186385771D01*
X181145057Y-186314343D01*
X181073628Y-186171486D01*
X181073628Y-185600057D01*
X181145057Y-185457200D01*
X181287914Y-185385771D01*
X181573628Y-185385771D01*
X181716485Y-185457200D01*
X181787914Y-185600057D01*
X181787914Y-185742914D01*
X181073628Y-185885771D01*
X182430771Y-186242914D02*
X182502199Y-186314343D01*
X182430771Y-186385771D01*
X182359342Y-186314343D01*
X182430771Y-186242914D01*
X182430771Y-186385771D01*
X182430771Y-185457200D02*
X182502199Y-185528629D01*
X182430771Y-185600057D01*
X182359342Y-185528629D01*
X182430771Y-185457200D01*
X182430771Y-185600057D01*
X184287914Y-186385771D02*
X184287914Y-184885771D01*
X184859342Y-184885771D01*
X185002200Y-184957200D01*
X185073628Y-185028629D01*
X185145057Y-185171486D01*
X185145057Y-185385771D01*
X185073628Y-185528629D01*
X185002200Y-185600057D01*
X184859342Y-185671486D01*
X184287914Y-185671486D01*
X186002200Y-186385771D02*
X185859342Y-186314343D01*
X185787914Y-186242914D01*
X185716485Y-186100057D01*
X185716485Y-185671486D01*
X185787914Y-185528629D01*
X185859342Y-185457200D01*
X186002200Y-185385771D01*
X186216485Y-185385771D01*
X186359342Y-185457200D01*
X186430771Y-185528629D01*
X186502200Y-185671486D01*
X186502200Y-186100057D01*
X186430771Y-186242914D01*
X186359342Y-186314343D01*
X186216485Y-186385771D01*
X186002200Y-186385771D01*
X187002200Y-185385771D02*
X187287914Y-186385771D01*
X187573628Y-185671486D01*
X187859343Y-186385771D01*
X188145057Y-185385771D01*
X189287914Y-186314343D02*
X189145057Y-186385771D01*
X188859343Y-186385771D01*
X188716486Y-186314343D01*
X188645057Y-186171486D01*
X188645057Y-185600057D01*
X188716486Y-185457200D01*
X188859343Y-185385771D01*
X189145057Y-185385771D01*
X189287914Y-185457200D01*
X189359343Y-185600057D01*
X189359343Y-185742914D01*
X188645057Y-185885771D01*
X190002200Y-186385771D02*
X190002200Y-185385771D01*
X190002200Y-185671486D02*
X190073628Y-185528629D01*
X190145057Y-185457200D01*
X190287914Y-185385771D01*
X190430771Y-185385771D01*
X191430771Y-185600057D02*
X191645057Y-185671486D01*
X191716485Y-185742914D01*
X191787914Y-185885771D01*
X191787914Y-186100057D01*
X191716485Y-186242914D01*
X191645057Y-186314343D01*
X191502199Y-186385771D01*
X190930771Y-186385771D01*
X190930771Y-184885771D01*
X191430771Y-184885771D01*
X191573628Y-184957200D01*
X191645057Y-185028629D01*
X191716485Y-185171486D01*
X191716485Y-185314343D01*
X191645057Y-185457200D01*
X191573628Y-185528629D01*
X191430771Y-185600057D01*
X190930771Y-185600057D01*
X192645057Y-186385771D02*
X192502199Y-186314343D01*
X192430771Y-186242914D01*
X192359342Y-186100057D01*
X192359342Y-185671486D01*
X192430771Y-185528629D01*
X192502199Y-185457200D01*
X192645057Y-185385771D01*
X192859342Y-185385771D01*
X193002199Y-185457200D01*
X193073628Y-185528629D01*
X193145057Y-185671486D01*
X193145057Y-186100057D01*
X193073628Y-186242914D01*
X193002199Y-186314343D01*
X192859342Y-186385771D01*
X192645057Y-186385771D01*
X193645057Y-186385771D02*
X194430771Y-185385771D01*
X193645057Y-185385771D02*
X194430771Y-186385771D01*
X195002200Y-186242914D02*
X195073628Y-186314343D01*
X195002200Y-186385771D01*
X194930771Y-186314343D01*
X195002200Y-186242914D01*
X195002200Y-186385771D01*
X195716486Y-186385771D02*
X195716486Y-184885771D01*
X195859343Y-185814343D02*
X196287914Y-186385771D01*
X196287914Y-185385771D02*
X195716486Y-185957200D01*
X196930772Y-186385771D02*
X196930772Y-185385771D01*
X196930772Y-184885771D02*
X196859343Y-184957200D01*
X196930772Y-185028629D01*
X197002200Y-184957200D01*
X196930772Y-184885771D01*
X196930772Y-185028629D01*
X198287915Y-186314343D02*
X198145058Y-186385771D01*
X197859344Y-186385771D01*
X197716486Y-186314343D01*
X197645058Y-186242914D01*
X197573629Y-186100057D01*
X197573629Y-185671486D01*
X197645058Y-185528629D01*
X197716486Y-185457200D01*
X197859344Y-185385771D01*
X198145058Y-185385771D01*
X198287915Y-185457200D01*
X199573629Y-186385771D02*
X199573629Y-185600057D01*
X199502200Y-185457200D01*
X199359343Y-185385771D01*
X199073629Y-185385771D01*
X198930772Y-185457200D01*
X199573629Y-186314343D02*
X199430772Y-186385771D01*
X199073629Y-186385771D01*
X198930772Y-186314343D01*
X198859343Y-186171486D01*
X198859343Y-186028629D01*
X198930772Y-185885771D01*
X199073629Y-185814343D01*
X199430772Y-185814343D01*
X199573629Y-185742914D01*
X200930772Y-186385771D02*
X200930772Y-184885771D01*
X200930772Y-186314343D02*
X200787915Y-186385771D01*
X200502201Y-186385771D01*
X200359343Y-186314343D01*
X200287915Y-186242914D01*
X200216486Y-186100057D01*
X200216486Y-185671486D01*
X200287915Y-185528629D01*
X200359343Y-185457200D01*
X200502201Y-185385771D01*
X200787915Y-185385771D01*
X200930772Y-185457200D01*
X201287915Y-186528629D02*
X202430772Y-186528629D01*
X202787915Y-185385771D02*
X202787915Y-186885771D01*
X202787915Y-185457200D02*
X202930772Y-185385771D01*
X203216486Y-185385771D01*
X203359343Y-185457200D01*
X203430772Y-185528629D01*
X203502201Y-185671486D01*
X203502201Y-186100057D01*
X203430772Y-186242914D01*
X203359343Y-186314343D01*
X203216486Y-186385771D01*
X202930772Y-186385771D01*
X202787915Y-186314343D01*
X204787915Y-186314343D02*
X204645058Y-186385771D01*
X204359344Y-186385771D01*
X204216486Y-186314343D01*
X204145058Y-186242914D01*
X204073629Y-186100057D01*
X204073629Y-185671486D01*
X204145058Y-185528629D01*
X204216486Y-185457200D01*
X204359344Y-185385771D01*
X204645058Y-185385771D01*
X204787915Y-185457200D01*
X205430772Y-186385771D02*
X205430772Y-184885771D01*
X205430772Y-185457200D02*
X205573629Y-185385771D01*
X205859343Y-185385771D01*
X206002200Y-185457200D01*
X206073629Y-185528629D01*
X206145058Y-185671486D01*
X206145058Y-186100057D01*
X206073629Y-186242914D01*
X206002200Y-186314343D01*
X205859343Y-186385771D01*
X205573629Y-186385771D01*
X205430772Y-186314343D01*
D10*
D11*
X177002200Y-181507200D02*
X285002200Y-181507200D01*
D10*
D11*
X178287914Y-183614343D02*
X178502200Y-183685771D01*
X178859343Y-183685771D01*
X179002200Y-183614343D01*
X179073629Y-183542914D01*
X179145057Y-183400057D01*
X179145057Y-183257200D01*
X179073629Y-183114343D01*
X179002200Y-183042914D01*
X178859343Y-182971486D01*
X178573629Y-182900057D01*
X178430771Y-182828629D01*
X178359343Y-182757200D01*
X178287914Y-182614343D01*
X178287914Y-182471486D01*
X178359343Y-182328629D01*
X178430771Y-182257200D01*
X178573629Y-182185771D01*
X178930771Y-182185771D01*
X179145057Y-182257200D01*
X179787914Y-183685771D02*
X179787914Y-182185771D01*
X180430771Y-183685771D02*
X180430771Y-182900057D01*
X180359342Y-182757200D01*
X180216485Y-182685771D01*
X180002200Y-182685771D01*
X179859342Y-182757200D01*
X179787914Y-182828629D01*
X181716485Y-183614343D02*
X181573628Y-183685771D01*
X181287914Y-183685771D01*
X181145057Y-183614343D01*
X181073628Y-183471486D01*
X181073628Y-182900057D01*
X181145057Y-182757200D01*
X181287914Y-182685771D01*
X181573628Y-182685771D01*
X181716485Y-182757200D01*
X181787914Y-182900057D01*
X181787914Y-183042914D01*
X181073628Y-183185771D01*
X183002199Y-183614343D02*
X182859342Y-183685771D01*
X182573628Y-183685771D01*
X182430771Y-183614343D01*
X182359342Y-183471486D01*
X182359342Y-182900057D01*
X182430771Y-182757200D01*
X182573628Y-182685771D01*
X182859342Y-182685771D01*
X183002199Y-182757200D01*
X183073628Y-182900057D01*
X183073628Y-183042914D01*
X182359342Y-183185771D01*
X183502199Y-182685771D02*
X184073628Y-182685771D01*
X183716485Y-182185771D02*
X183716485Y-183471486D01*
X183787913Y-183614343D01*
X183930771Y-183685771D01*
X184073628Y-183685771D01*
X184573628Y-183542914D02*
X184645056Y-183614343D01*
X184573628Y-183685771D01*
X184502199Y-183614343D01*
X184573628Y-183542914D01*
X184573628Y-183685771D01*
X184573628Y-182757200D02*
X184645056Y-182828629D01*
X184573628Y-182900057D01*
X184502199Y-182828629D01*
X184573628Y-182757200D01*
X184573628Y-182900057D01*
D10*
D11*
X197002200Y-191507200D02*
X197002200Y-194507200D01*
D10*
D11*
X261002200Y-191507200D02*
X261002200Y-198007200D01*
D14*
X108640000Y-116400000D02*
X164840000Y-116400000D01*
X108640000Y-117500000D02*
X164840000Y-117500000D01*
X108640000Y-118000000D02*
X108640000Y-110800000D01*
X108640000Y-110800000D02*
X164840000Y-110800000D01*
X164840000Y-110800000D02*
X164840000Y-118000000D01*
X112240000Y-117500000D02*
X112240000Y-117900000D01*
X115740000Y-117500000D02*
X115740000Y-117900000D01*
X119240000Y-117500000D02*
X119240000Y-117900000D01*
X122740000Y-117500000D02*
X122740000Y-117900000D01*
X126240000Y-117500000D02*
X126240000Y-117900000D01*
X129740000Y-117500000D02*
X129740000Y-117900000D01*
X133240000Y-117500000D02*
X133240000Y-117900000D01*
X136740000Y-117500000D02*
X136740000Y-117900000D01*
X140240000Y-117500000D02*
X140240000Y-117900000D01*
X143740000Y-117500000D02*
X143740000Y-117900000D01*
X147240000Y-117500000D02*
X147240000Y-117900000D01*
X150740000Y-117500000D02*
X150740000Y-117900000D01*
X154240000Y-117500000D02*
X154240000Y-117900000D01*
X157740000Y-117500000D02*
X157740000Y-117900000D01*
X161240000Y-117500000D02*
X161240000Y-117900000D01*
X108400000Y-116150000D02*
X108400000Y-118240000D01*
X108400000Y-118240000D02*
X110490000Y-118240000D01*
D11*
X104648000Y-82931000D02*
X121412000Y-82931000D01*
X121412000Y-82931000D02*
X121412000Y-105029000D01*
X121412000Y-105029000D02*
X104648000Y-105029000D01*
X104648000Y-105029000D02*
X104648000Y-82931000D01*
X126619000Y-53848000D02*
X126619000Y-70612000D01*
X126619000Y-70612000D02*
X104521000Y-70612000D01*
X104521000Y-70612000D02*
X104521000Y-53848000D01*
X104521000Y-53848000D02*
X126619000Y-53848000D01*
X126238000Y-82931000D02*
X143002000Y-82931000D01*
X143002000Y-82931000D02*
X143002000Y-105029000D01*
X143002000Y-105029000D02*
X126238000Y-105029000D01*
X126238000Y-105029000D02*
X126238000Y-82931000D01*
X131318000Y-53721000D02*
X148082000Y-53721000D01*
X148082000Y-53721000D02*
X148082000Y-75819000D01*
X148082000Y-75819000D02*
X131318000Y-75819000D01*
X131318000Y-75819000D02*
X131318000Y-53721000D01*
X151638000Y-53721000D02*
X168402000Y-53721000D01*
X168402000Y-53721000D02*
X168402000Y-75819000D01*
X168402000Y-75819000D02*
X151638000Y-75819000D01*
X151638000Y-75819000D02*
X151638000Y-53721000D01*
X168529000Y-79248000D02*
X168529000Y-96012000D01*
X168529000Y-96012000D02*
X146431000Y-96012000D01*
X146431000Y-96012000D02*
X146431000Y-79248000D01*
X146431000Y-79248000D02*
X168529000Y-79248000D01*
X136406667Y-109152381D02*
X136406667Y-109866667D01*
X136359047Y-110009524D01*
X136263809Y-110104762D01*
X136120952Y-110152381D01*
X136025714Y-110152381D01*
X137406667Y-110152381D02*
X136835238Y-110152381D01*
X137120952Y-110152381D02*
X137120952Y-109152381D01*
X137025714Y-109295238D01*
X136930476Y-109390476D01*
X136835238Y-109438095D01*
X148442381Y-124657143D02*
X149442381Y-124323810D01*
X148442381Y-123990476D01*
X148442381Y-123466667D02*
X148442381Y-123276190D01*
X148490000Y-123180952D01*
X148585238Y-123085714D01*
X148775714Y-123038095D01*
X149109048Y-123038095D01*
X149299524Y-123085714D01*
X149394762Y-123180952D01*
X149442381Y-123276190D01*
X149442381Y-123466667D01*
X149394762Y-123561905D01*
X149299524Y-123657143D01*
X149109048Y-123704762D01*
X148775714Y-123704762D01*
X148585238Y-123657143D01*
X148490000Y-123561905D01*
X148442381Y-123466667D01*
X148442381Y-122609524D02*
X149251905Y-122609524D01*
X149347143Y-122561905D01*
X149394762Y-122514286D01*
X149442381Y-122419048D01*
X149442381Y-122228571D01*
X149394762Y-122133333D01*
X149347143Y-122085714D01*
X149251905Y-122038095D01*
X148442381Y-122038095D01*
X148442381Y-121704762D02*
X148442381Y-121133333D01*
X149442381Y-121419048D02*
X148442381Y-121419048D01*
X148442381Y-120323809D02*
X148442381Y-120800000D01*
X148918571Y-120847619D01*
X148870952Y-120800000D01*
X148823333Y-120704762D01*
X148823333Y-120466666D01*
X148870952Y-120371428D01*
X148918571Y-120323809D01*
X149013810Y-120276190D01*
X149251905Y-120276190D01*
X149347143Y-120323809D01*
X149394762Y-120371428D01*
X149442381Y-120466666D01*
X149442381Y-120704762D01*
X149394762Y-120800000D01*
X149347143Y-120847619D01*
X149061429Y-119847619D02*
X149061429Y-119085714D01*
X149442381Y-119466666D02*
X148680476Y-119466666D01*
X144942381Y-124657143D02*
X145942381Y-124323810D01*
X144942381Y-123990476D01*
X144942381Y-123466667D02*
X144942381Y-123276190D01*
X144990000Y-123180952D01*
X145085238Y-123085714D01*
X145275714Y-123038095D01*
X145609048Y-123038095D01*
X145799524Y-123085714D01*
X145894762Y-123180952D01*
X145942381Y-123276190D01*
X145942381Y-123466667D01*
X145894762Y-123561905D01*
X145799524Y-123657143D01*
X145609048Y-123704762D01*
X145275714Y-123704762D01*
X145085238Y-123657143D01*
X144990000Y-123561905D01*
X144942381Y-123466667D01*
X144942381Y-122609524D02*
X145751905Y-122609524D01*
X145847143Y-122561905D01*
X145894762Y-122514286D01*
X145942381Y-122419048D01*
X145942381Y-122228571D01*
X145894762Y-122133333D01*
X145847143Y-122085714D01*
X145751905Y-122038095D01*
X144942381Y-122038095D01*
X144942381Y-121704762D02*
X144942381Y-121133333D01*
X145942381Y-121419048D02*
X144942381Y-121419048D01*
X144942381Y-120323809D02*
X144942381Y-120800000D01*
X145418571Y-120847619D01*
X145370952Y-120800000D01*
X145323333Y-120704762D01*
X145323333Y-120466666D01*
X145370952Y-120371428D01*
X145418571Y-120323809D01*
X145513810Y-120276190D01*
X145751905Y-120276190D01*
X145847143Y-120323809D01*
X145894762Y-120371428D01*
X145942381Y-120466666D01*
X145942381Y-120704762D01*
X145894762Y-120800000D01*
X145847143Y-120847619D01*
X145561429Y-119847619D02*
X145561429Y-119085714D01*
X151942381Y-124657143D02*
X152942381Y-124323810D01*
X151942381Y-123990476D01*
X151942381Y-123466667D02*
X151942381Y-123276190D01*
X151990000Y-123180952D01*
X152085238Y-123085714D01*
X152275714Y-123038095D01*
X152609048Y-123038095D01*
X152799524Y-123085714D01*
X152894762Y-123180952D01*
X152942381Y-123276190D01*
X152942381Y-123466667D01*
X152894762Y-123561905D01*
X152799524Y-123657143D01*
X152609048Y-123704762D01*
X152275714Y-123704762D01*
X152085238Y-123657143D01*
X151990000Y-123561905D01*
X151942381Y-123466667D01*
X151942381Y-122609524D02*
X152751905Y-122609524D01*
X152847143Y-122561905D01*
X152894762Y-122514286D01*
X152942381Y-122419048D01*
X152942381Y-122228571D01*
X152894762Y-122133333D01*
X152847143Y-122085714D01*
X152751905Y-122038095D01*
X151942381Y-122038095D01*
X151942381Y-121704762D02*
X151942381Y-121133333D01*
X152942381Y-121419048D02*
X151942381Y-121419048D01*
X151942381Y-120371428D02*
X151942381Y-120561905D01*
X151990000Y-120657143D01*
X152037619Y-120704762D01*
X152180476Y-120800000D01*
X152370952Y-120847619D01*
X152751905Y-120847619D01*
X152847143Y-120800000D01*
X152894762Y-120752381D01*
X152942381Y-120657143D01*
X152942381Y-120466666D01*
X152894762Y-120371428D01*
X152847143Y-120323809D01*
X152751905Y-120276190D01*
X152513810Y-120276190D01*
X152418571Y-120323809D01*
X152370952Y-120371428D01*
X152323333Y-120466666D01*
X152323333Y-120657143D01*
X152370952Y-120752381D01*
X152418571Y-120800000D01*
X152513810Y-120847619D01*
X152561429Y-119847619D02*
X152561429Y-119085714D01*
X155442381Y-124657143D02*
X156442381Y-124323810D01*
X155442381Y-123990476D01*
X155442381Y-123466667D02*
X155442381Y-123276190D01*
X155490000Y-123180952D01*
X155585238Y-123085714D01*
X155775714Y-123038095D01*
X156109048Y-123038095D01*
X156299524Y-123085714D01*
X156394762Y-123180952D01*
X156442381Y-123276190D01*
X156442381Y-123466667D01*
X156394762Y-123561905D01*
X156299524Y-123657143D01*
X156109048Y-123704762D01*
X155775714Y-123704762D01*
X155585238Y-123657143D01*
X155490000Y-123561905D01*
X155442381Y-123466667D01*
X155442381Y-122609524D02*
X156251905Y-122609524D01*
X156347143Y-122561905D01*
X156394762Y-122514286D01*
X156442381Y-122419048D01*
X156442381Y-122228571D01*
X156394762Y-122133333D01*
X156347143Y-122085714D01*
X156251905Y-122038095D01*
X155442381Y-122038095D01*
X155442381Y-121704762D02*
X155442381Y-121133333D01*
X156442381Y-121419048D02*
X155442381Y-121419048D01*
X155442381Y-120371428D02*
X155442381Y-120561905D01*
X155490000Y-120657143D01*
X155537619Y-120704762D01*
X155680476Y-120800000D01*
X155870952Y-120847619D01*
X156251905Y-120847619D01*
X156347143Y-120800000D01*
X156394762Y-120752381D01*
X156442381Y-120657143D01*
X156442381Y-120466666D01*
X156394762Y-120371428D01*
X156347143Y-120323809D01*
X156251905Y-120276190D01*
X156013810Y-120276190D01*
X155918571Y-120323809D01*
X155870952Y-120371428D01*
X155823333Y-120466666D01*
X155823333Y-120657143D01*
X155870952Y-120752381D01*
X155918571Y-120800000D01*
X156013810Y-120847619D01*
X156061429Y-119847619D02*
X156061429Y-119085714D01*
X156442381Y-119466666D02*
X155680476Y-119466666D01*
X159942381Y-124442857D02*
X158942381Y-124442857D01*
X158942381Y-124204762D01*
X158990000Y-124061904D01*
X159085238Y-123966666D01*
X159180476Y-123919047D01*
X159370952Y-123871428D01*
X159513810Y-123871428D01*
X159704286Y-123919047D01*
X159799524Y-123966666D01*
X159894762Y-124061904D01*
X159942381Y-124204762D01*
X159942381Y-124442857D01*
X159656667Y-123490476D02*
X159656667Y-123014285D01*
X159942381Y-123585714D02*
X158942381Y-123252381D01*
X159942381Y-122919047D01*
X158942381Y-122728571D02*
X158942381Y-122157142D01*
X159942381Y-122442857D02*
X158942381Y-122442857D01*
X159656667Y-121871428D02*
X159656667Y-121395237D01*
X159942381Y-121966666D02*
X158942381Y-121633333D01*
X159942381Y-121299999D01*
X160037619Y-121204761D02*
X160037619Y-120442856D01*
X159942381Y-120204761D02*
X158942381Y-120204761D01*
X159942381Y-119728571D02*
X158942381Y-119728571D01*
X159942381Y-119157142D01*
X158942381Y-119157142D01*
X163442381Y-126109524D02*
X162442381Y-126109524D01*
X162442381Y-125871429D01*
X162490000Y-125728571D01*
X162585238Y-125633333D01*
X162680476Y-125585714D01*
X162870952Y-125538095D01*
X163013810Y-125538095D01*
X163204286Y-125585714D01*
X163299524Y-125633333D01*
X163394762Y-125728571D01*
X163442381Y-125871429D01*
X163442381Y-126109524D01*
X163156667Y-125157143D02*
X163156667Y-124680952D01*
X163442381Y-125252381D02*
X162442381Y-124919048D01*
X163442381Y-124585714D01*
X162442381Y-124395238D02*
X162442381Y-123823809D01*
X163442381Y-124109524D02*
X162442381Y-124109524D01*
X163156667Y-123538095D02*
X163156667Y-123061904D01*
X163442381Y-123633333D02*
X162442381Y-123300000D01*
X163442381Y-122966666D01*
X163537619Y-122871428D02*
X163537619Y-122109523D01*
X162442381Y-121680952D02*
X162442381Y-121490475D01*
X162490000Y-121395237D01*
X162585238Y-121299999D01*
X162775714Y-121252380D01*
X163109048Y-121252380D01*
X163299524Y-121299999D01*
X163394762Y-121395237D01*
X163442381Y-121490475D01*
X163442381Y-121680952D01*
X163394762Y-121776190D01*
X163299524Y-121871428D01*
X163109048Y-121919047D01*
X162775714Y-121919047D01*
X162585238Y-121871428D01*
X162490000Y-121776190D01*
X162442381Y-121680952D01*
X162442381Y-120823809D02*
X163251905Y-120823809D01*
X163347143Y-120776190D01*
X163394762Y-120728571D01*
X163442381Y-120633333D01*
X163442381Y-120442856D01*
X163394762Y-120347618D01*
X163347143Y-120299999D01*
X163251905Y-120252380D01*
X162442381Y-120252380D01*
X162442381Y-119919047D02*
X162442381Y-119347618D01*
X163442381Y-119633333D02*
X162442381Y-119633333D01*
X134442381Y-124657143D02*
X135442381Y-124323810D01*
X134442381Y-123990476D01*
X134442381Y-123466667D02*
X134442381Y-123276190D01*
X134490000Y-123180952D01*
X134585238Y-123085714D01*
X134775714Y-123038095D01*
X135109048Y-123038095D01*
X135299524Y-123085714D01*
X135394762Y-123180952D01*
X135442381Y-123276190D01*
X135442381Y-123466667D01*
X135394762Y-123561905D01*
X135299524Y-123657143D01*
X135109048Y-123704762D01*
X134775714Y-123704762D01*
X134585238Y-123657143D01*
X134490000Y-123561905D01*
X134442381Y-123466667D01*
X134442381Y-122609524D02*
X135251905Y-122609524D01*
X135347143Y-122561905D01*
X135394762Y-122514286D01*
X135442381Y-122419048D01*
X135442381Y-122228571D01*
X135394762Y-122133333D01*
X135347143Y-122085714D01*
X135251905Y-122038095D01*
X134442381Y-122038095D01*
X134442381Y-121704762D02*
X134442381Y-121133333D01*
X135442381Y-121419048D02*
X134442381Y-121419048D01*
X134442381Y-120895238D02*
X134442381Y-120276190D01*
X134823333Y-120609524D01*
X134823333Y-120466666D01*
X134870952Y-120371428D01*
X134918571Y-120323809D01*
X135013810Y-120276190D01*
X135251905Y-120276190D01*
X135347143Y-120323809D01*
X135394762Y-120371428D01*
X135442381Y-120466666D01*
X135442381Y-120752381D01*
X135394762Y-120847619D01*
X135347143Y-120895238D01*
X135061429Y-119847619D02*
X135061429Y-119085714D01*
X135442381Y-119466666D02*
X134680476Y-119466666D01*
X130942381Y-124657143D02*
X131942381Y-124323810D01*
X130942381Y-123990476D01*
X130942381Y-123466667D02*
X130942381Y-123276190D01*
X130990000Y-123180952D01*
X131085238Y-123085714D01*
X131275714Y-123038095D01*
X131609048Y-123038095D01*
X131799524Y-123085714D01*
X131894762Y-123180952D01*
X131942381Y-123276190D01*
X131942381Y-123466667D01*
X131894762Y-123561905D01*
X131799524Y-123657143D01*
X131609048Y-123704762D01*
X131275714Y-123704762D01*
X131085238Y-123657143D01*
X130990000Y-123561905D01*
X130942381Y-123466667D01*
X130942381Y-122609524D02*
X131751905Y-122609524D01*
X131847143Y-122561905D01*
X131894762Y-122514286D01*
X131942381Y-122419048D01*
X131942381Y-122228571D01*
X131894762Y-122133333D01*
X131847143Y-122085714D01*
X131751905Y-122038095D01*
X130942381Y-122038095D01*
X130942381Y-121704762D02*
X130942381Y-121133333D01*
X131942381Y-121419048D02*
X130942381Y-121419048D01*
X130942381Y-120895238D02*
X130942381Y-120276190D01*
X131323333Y-120609524D01*
X131323333Y-120466666D01*
X131370952Y-120371428D01*
X131418571Y-120323809D01*
X131513810Y-120276190D01*
X131751905Y-120276190D01*
X131847143Y-120323809D01*
X131894762Y-120371428D01*
X131942381Y-120466666D01*
X131942381Y-120752381D01*
X131894762Y-120847619D01*
X131847143Y-120895238D01*
X131561429Y-119847619D02*
X131561429Y-119085714D01*
X137942381Y-124657143D02*
X138942381Y-124323810D01*
X137942381Y-123990476D01*
X137942381Y-123466667D02*
X137942381Y-123276190D01*
X137990000Y-123180952D01*
X138085238Y-123085714D01*
X138275714Y-123038095D01*
X138609048Y-123038095D01*
X138799524Y-123085714D01*
X138894762Y-123180952D01*
X138942381Y-123276190D01*
X138942381Y-123466667D01*
X138894762Y-123561905D01*
X138799524Y-123657143D01*
X138609048Y-123704762D01*
X138275714Y-123704762D01*
X138085238Y-123657143D01*
X137990000Y-123561905D01*
X137942381Y-123466667D01*
X137942381Y-122609524D02*
X138751905Y-122609524D01*
X138847143Y-122561905D01*
X138894762Y-122514286D01*
X138942381Y-122419048D01*
X138942381Y-122228571D01*
X138894762Y-122133333D01*
X138847143Y-122085714D01*
X138751905Y-122038095D01*
X137942381Y-122038095D01*
X137942381Y-121704762D02*
X137942381Y-121133333D01*
X138942381Y-121419048D02*
X137942381Y-121419048D01*
X138275714Y-120371428D02*
X138942381Y-120371428D01*
X137894762Y-120609524D02*
X138609048Y-120847619D01*
X138609048Y-120228571D01*
X138561429Y-119847619D02*
X138561429Y-119085714D01*
X141442381Y-124657143D02*
X142442381Y-124323810D01*
X141442381Y-123990476D01*
X141442381Y-123466667D02*
X141442381Y-123276190D01*
X141490000Y-123180952D01*
X141585238Y-123085714D01*
X141775714Y-123038095D01*
X142109048Y-123038095D01*
X142299524Y-123085714D01*
X142394762Y-123180952D01*
X142442381Y-123276190D01*
X142442381Y-123466667D01*
X142394762Y-123561905D01*
X142299524Y-123657143D01*
X142109048Y-123704762D01*
X141775714Y-123704762D01*
X141585238Y-123657143D01*
X141490000Y-123561905D01*
X141442381Y-123466667D01*
X141442381Y-122609524D02*
X142251905Y-122609524D01*
X142347143Y-122561905D01*
X142394762Y-122514286D01*
X142442381Y-122419048D01*
X142442381Y-122228571D01*
X142394762Y-122133333D01*
X142347143Y-122085714D01*
X142251905Y-122038095D01*
X141442381Y-122038095D01*
X141442381Y-121704762D02*
X141442381Y-121133333D01*
X142442381Y-121419048D02*
X141442381Y-121419048D01*
X141775714Y-120371428D02*
X142442381Y-120371428D01*
X141394762Y-120609524D02*
X142109048Y-120847619D01*
X142109048Y-120228571D01*
X142061429Y-119847619D02*
X142061429Y-119085714D01*
X142442381Y-119466666D02*
X141680476Y-119466666D01*
X127442381Y-124657143D02*
X128442381Y-124323810D01*
X127442381Y-123990476D01*
X127442381Y-123466667D02*
X127442381Y-123276190D01*
X127490000Y-123180952D01*
X127585238Y-123085714D01*
X127775714Y-123038095D01*
X128109048Y-123038095D01*
X128299524Y-123085714D01*
X128394762Y-123180952D01*
X128442381Y-123276190D01*
X128442381Y-123466667D01*
X128394762Y-123561905D01*
X128299524Y-123657143D01*
X128109048Y-123704762D01*
X127775714Y-123704762D01*
X127585238Y-123657143D01*
X127490000Y-123561905D01*
X127442381Y-123466667D01*
X127442381Y-122609524D02*
X128251905Y-122609524D01*
X128347143Y-122561905D01*
X128394762Y-122514286D01*
X128442381Y-122419048D01*
X128442381Y-122228571D01*
X128394762Y-122133333D01*
X128347143Y-122085714D01*
X128251905Y-122038095D01*
X127442381Y-122038095D01*
X127442381Y-121704762D02*
X127442381Y-121133333D01*
X128442381Y-121419048D02*
X127442381Y-121419048D01*
X127537619Y-120847619D02*
X127490000Y-120800000D01*
X127442381Y-120704762D01*
X127442381Y-120466666D01*
X127490000Y-120371428D01*
X127537619Y-120323809D01*
X127632857Y-120276190D01*
X127728095Y-120276190D01*
X127870952Y-120323809D01*
X128442381Y-120895238D01*
X128442381Y-120276190D01*
X128061429Y-119847619D02*
X128061429Y-119085714D01*
X128442381Y-119466666D02*
X127680476Y-119466666D01*
X123942381Y-124657143D02*
X124942381Y-124323810D01*
X123942381Y-123990476D01*
X123942381Y-123466667D02*
X123942381Y-123276190D01*
X123990000Y-123180952D01*
X124085238Y-123085714D01*
X124275714Y-123038095D01*
X124609048Y-123038095D01*
X124799524Y-123085714D01*
X124894762Y-123180952D01*
X124942381Y-123276190D01*
X124942381Y-123466667D01*
X124894762Y-123561905D01*
X124799524Y-123657143D01*
X124609048Y-123704762D01*
X124275714Y-123704762D01*
X124085238Y-123657143D01*
X123990000Y-123561905D01*
X123942381Y-123466667D01*
X123942381Y-122609524D02*
X124751905Y-122609524D01*
X124847143Y-122561905D01*
X124894762Y-122514286D01*
X124942381Y-122419048D01*
X124942381Y-122228571D01*
X124894762Y-122133333D01*
X124847143Y-122085714D01*
X124751905Y-122038095D01*
X123942381Y-122038095D01*
X123942381Y-121704762D02*
X123942381Y-121133333D01*
X124942381Y-121419048D02*
X123942381Y-121419048D01*
X124037619Y-120847619D02*
X123990000Y-120800000D01*
X123942381Y-120704762D01*
X123942381Y-120466666D01*
X123990000Y-120371428D01*
X124037619Y-120323809D01*
X124132857Y-120276190D01*
X124228095Y-120276190D01*
X124370952Y-120323809D01*
X124942381Y-120895238D01*
X124942381Y-120276190D01*
X124561429Y-119847619D02*
X124561429Y-119085714D01*
X116942381Y-124657143D02*
X117942381Y-124323810D01*
X116942381Y-123990476D01*
X116942381Y-123466667D02*
X116942381Y-123276190D01*
X116990000Y-123180952D01*
X117085238Y-123085714D01*
X117275714Y-123038095D01*
X117609048Y-123038095D01*
X117799524Y-123085714D01*
X117894762Y-123180952D01*
X117942381Y-123276190D01*
X117942381Y-123466667D01*
X117894762Y-123561905D01*
X117799524Y-123657143D01*
X117609048Y-123704762D01*
X117275714Y-123704762D01*
X117085238Y-123657143D01*
X116990000Y-123561905D01*
X116942381Y-123466667D01*
X116942381Y-122609524D02*
X117751905Y-122609524D01*
X117847143Y-122561905D01*
X117894762Y-122514286D01*
X117942381Y-122419048D01*
X117942381Y-122228571D01*
X117894762Y-122133333D01*
X117847143Y-122085714D01*
X117751905Y-122038095D01*
X116942381Y-122038095D01*
X116942381Y-121704762D02*
X116942381Y-121133333D01*
X117942381Y-121419048D02*
X116942381Y-121419048D01*
X117942381Y-120276190D02*
X117942381Y-120847619D01*
X117942381Y-120561905D02*
X116942381Y-120561905D01*
X117085238Y-120657143D01*
X117180476Y-120752381D01*
X117228095Y-120847619D01*
X117561429Y-119847619D02*
X117561429Y-119085714D01*
X120442381Y-124657143D02*
X121442381Y-124323810D01*
X120442381Y-123990476D01*
X120442381Y-123466667D02*
X120442381Y-123276190D01*
X120490000Y-123180952D01*
X120585238Y-123085714D01*
X120775714Y-123038095D01*
X121109048Y-123038095D01*
X121299524Y-123085714D01*
X121394762Y-123180952D01*
X121442381Y-123276190D01*
X121442381Y-123466667D01*
X121394762Y-123561905D01*
X121299524Y-123657143D01*
X121109048Y-123704762D01*
X120775714Y-123704762D01*
X120585238Y-123657143D01*
X120490000Y-123561905D01*
X120442381Y-123466667D01*
X120442381Y-122609524D02*
X121251905Y-122609524D01*
X121347143Y-122561905D01*
X121394762Y-122514286D01*
X121442381Y-122419048D01*
X121442381Y-122228571D01*
X121394762Y-122133333D01*
X121347143Y-122085714D01*
X121251905Y-122038095D01*
X120442381Y-122038095D01*
X120442381Y-121704762D02*
X120442381Y-121133333D01*
X121442381Y-121419048D02*
X120442381Y-121419048D01*
X121442381Y-120276190D02*
X121442381Y-120847619D01*
X121442381Y-120561905D02*
X120442381Y-120561905D01*
X120585238Y-120657143D01*
X120680476Y-120752381D01*
X120728095Y-120847619D01*
X121061429Y-119847619D02*
X121061429Y-119085714D01*
X121442381Y-119466666D02*
X120680476Y-119466666D01*
X113442381Y-122514285D02*
X114442381Y-122180952D01*
X113442381Y-121847618D01*
X114442381Y-121514285D02*
X113442381Y-121514285D01*
X114442381Y-121038095D02*
X113442381Y-121038095D01*
X114442381Y-120466666D01*
X113442381Y-120466666D01*
X114061429Y-119990476D02*
X114061429Y-119228571D01*
X114442381Y-119609523D02*
X113680476Y-119609523D01*
X109942381Y-122514285D02*
X110942381Y-122180952D01*
X109942381Y-121847618D01*
X110942381Y-121514285D02*
X109942381Y-121514285D01*
X110942381Y-121038095D02*
X109942381Y-121038095D01*
X110942381Y-120466666D01*
X109942381Y-120466666D01*
X110561429Y-119990476D02*
X110561429Y-119228571D01*
X114133381Y-94741905D02*
X114942905Y-94741905D01*
X115038143Y-94694286D01*
X115085762Y-94646667D01*
X115133381Y-94551429D01*
X115133381Y-94360952D01*
X115085762Y-94265714D01*
X115038143Y-94218095D01*
X114942905Y-94170476D01*
X114133381Y-94170476D01*
X115133381Y-93170476D02*
X115133381Y-93741905D01*
X115133381Y-93456191D02*
X114133381Y-93456191D01*
X114276238Y-93551429D01*
X114371476Y-93646667D01*
X114419095Y-93741905D01*
X117982381Y-90099048D02*
X117982381Y-89908571D01*
X118030000Y-89813333D01*
X118125238Y-89718095D01*
X118315714Y-89670476D01*
X118649048Y-89670476D01*
X118839524Y-89718095D01*
X118934762Y-89813333D01*
X118982381Y-89908571D01*
X118982381Y-90099048D01*
X118934762Y-90194286D01*
X118839524Y-90289524D01*
X118649048Y-90337143D01*
X118315714Y-90337143D01*
X118125238Y-90289524D01*
X118030000Y-90194286D01*
X117982381Y-90099048D01*
X117982381Y-89241905D02*
X118791905Y-89241905D01*
X118887143Y-89194286D01*
X118934762Y-89146667D01*
X118982381Y-89051429D01*
X118982381Y-88860952D01*
X118934762Y-88765714D01*
X118887143Y-88718095D01*
X118791905Y-88670476D01*
X117982381Y-88670476D01*
X117982381Y-88337143D02*
X117982381Y-87765714D01*
X118982381Y-88051429D02*
X117982381Y-88051429D01*
X118601429Y-87432381D02*
X118601429Y-86670476D01*
X118982381Y-87051428D02*
X118220476Y-87051428D01*
X106982381Y-90099048D02*
X106982381Y-89908571D01*
X107030000Y-89813333D01*
X107125238Y-89718095D01*
X107315714Y-89670476D01*
X107649048Y-89670476D01*
X107839524Y-89718095D01*
X107934762Y-89813333D01*
X107982381Y-89908571D01*
X107982381Y-90099048D01*
X107934762Y-90194286D01*
X107839524Y-90289524D01*
X107649048Y-90337143D01*
X107315714Y-90337143D01*
X107125238Y-90289524D01*
X107030000Y-90194286D01*
X106982381Y-90099048D01*
X106982381Y-89241905D02*
X107791905Y-89241905D01*
X107887143Y-89194286D01*
X107934762Y-89146667D01*
X107982381Y-89051429D01*
X107982381Y-88860952D01*
X107934762Y-88765714D01*
X107887143Y-88718095D01*
X107791905Y-88670476D01*
X106982381Y-88670476D01*
X106982381Y-88337143D02*
X106982381Y-87765714D01*
X107982381Y-88051429D02*
X106982381Y-88051429D01*
X107601429Y-87432381D02*
X107601429Y-86670476D01*
X107982381Y-101122857D02*
X106982381Y-101122857D01*
X107982381Y-100646667D02*
X106982381Y-100646667D01*
X107982381Y-100075238D01*
X106982381Y-100075238D01*
X107601429Y-99599048D02*
X107601429Y-98837143D01*
X118982381Y-101122857D02*
X117982381Y-101122857D01*
X118982381Y-100646667D02*
X117982381Y-100646667D01*
X118982381Y-100075238D01*
X117982381Y-100075238D01*
X118601429Y-99599048D02*
X118601429Y-98837143D01*
X118982381Y-99218095D02*
X118220476Y-99218095D01*
X114808095Y-63333381D02*
X114808095Y-64142905D01*
X114855714Y-64238143D01*
X114903333Y-64285762D01*
X114998571Y-64333381D01*
X115189048Y-64333381D01*
X115284286Y-64285762D01*
X115331905Y-64238143D01*
X115379524Y-64142905D01*
X115379524Y-63333381D01*
X115808095Y-63428619D02*
X115855714Y-63381000D01*
X115950952Y-63333381D01*
X116189048Y-63333381D01*
X116284286Y-63381000D01*
X116331905Y-63428619D01*
X116379524Y-63523857D01*
X116379524Y-63619095D01*
X116331905Y-63761952D01*
X115760476Y-64333381D01*
X116379524Y-64333381D01*
X119450952Y-67182381D02*
X119641429Y-67182381D01*
X119736667Y-67230000D01*
X119831905Y-67325238D01*
X119879524Y-67515714D01*
X119879524Y-67849048D01*
X119831905Y-68039524D01*
X119736667Y-68134762D01*
X119641429Y-68182381D01*
X119450952Y-68182381D01*
X119355714Y-68134762D01*
X119260476Y-68039524D01*
X119212857Y-67849048D01*
X119212857Y-67515714D01*
X119260476Y-67325238D01*
X119355714Y-67230000D01*
X119450952Y-67182381D01*
X120308095Y-67182381D02*
X120308095Y-67991905D01*
X120355714Y-68087143D01*
X120403333Y-68134762D01*
X120498571Y-68182381D01*
X120689048Y-68182381D01*
X120784286Y-68134762D01*
X120831905Y-68087143D01*
X120879524Y-67991905D01*
X120879524Y-67182381D01*
X121212857Y-67182381D02*
X121784286Y-67182381D01*
X121498571Y-68182381D02*
X121498571Y-67182381D01*
X122117619Y-67801429D02*
X122879524Y-67801429D01*
X122498572Y-68182381D02*
X122498572Y-67420476D01*
X119450952Y-56182381D02*
X119641429Y-56182381D01*
X119736667Y-56230000D01*
X119831905Y-56325238D01*
X119879524Y-56515714D01*
X119879524Y-56849048D01*
X119831905Y-57039524D01*
X119736667Y-57134762D01*
X119641429Y-57182381D01*
X119450952Y-57182381D01*
X119355714Y-57134762D01*
X119260476Y-57039524D01*
X119212857Y-56849048D01*
X119212857Y-56515714D01*
X119260476Y-56325238D01*
X119355714Y-56230000D01*
X119450952Y-56182381D01*
X120308095Y-56182381D02*
X120308095Y-56991905D01*
X120355714Y-57087143D01*
X120403333Y-57134762D01*
X120498571Y-57182381D01*
X120689048Y-57182381D01*
X120784286Y-57134762D01*
X120831905Y-57087143D01*
X120879524Y-56991905D01*
X120879524Y-56182381D01*
X121212857Y-56182381D02*
X121784286Y-56182381D01*
X121498571Y-57182381D02*
X121498571Y-56182381D01*
X122117619Y-56801429D02*
X122879524Y-56801429D01*
X108427143Y-57182381D02*
X108427143Y-56182381D01*
X108903333Y-57182381D02*
X108903333Y-56182381D01*
X109474762Y-57182381D01*
X109474762Y-56182381D01*
X109950952Y-56801429D02*
X110712857Y-56801429D01*
X108427143Y-68182381D02*
X108427143Y-67182381D01*
X108903333Y-68182381D02*
X108903333Y-67182381D01*
X109474762Y-68182381D01*
X109474762Y-67182381D01*
X109950952Y-67801429D02*
X110712857Y-67801429D01*
X110331905Y-68182381D02*
X110331905Y-67420476D01*
X135723381Y-94741905D02*
X136532905Y-94741905D01*
X136628143Y-94694286D01*
X136675762Y-94646667D01*
X136723381Y-94551429D01*
X136723381Y-94360952D01*
X136675762Y-94265714D01*
X136628143Y-94218095D01*
X136532905Y-94170476D01*
X135723381Y-94170476D01*
X135723381Y-93789524D02*
X135723381Y-93170476D01*
X136104333Y-93503810D01*
X136104333Y-93360952D01*
X136151952Y-93265714D01*
X136199571Y-93218095D01*
X136294810Y-93170476D01*
X136532905Y-93170476D01*
X136628143Y-93218095D01*
X136675762Y-93265714D01*
X136723381Y-93360952D01*
X136723381Y-93646667D01*
X136675762Y-93741905D01*
X136628143Y-93789524D01*
X139572381Y-90099048D02*
X139572381Y-89908571D01*
X139620000Y-89813333D01*
X139715238Y-89718095D01*
X139905714Y-89670476D01*
X140239048Y-89670476D01*
X140429524Y-89718095D01*
X140524762Y-89813333D01*
X140572381Y-89908571D01*
X140572381Y-90099048D01*
X140524762Y-90194286D01*
X140429524Y-90289524D01*
X140239048Y-90337143D01*
X139905714Y-90337143D01*
X139715238Y-90289524D01*
X139620000Y-90194286D01*
X139572381Y-90099048D01*
X139572381Y-89241905D02*
X140381905Y-89241905D01*
X140477143Y-89194286D01*
X140524762Y-89146667D01*
X140572381Y-89051429D01*
X140572381Y-88860952D01*
X140524762Y-88765714D01*
X140477143Y-88718095D01*
X140381905Y-88670476D01*
X139572381Y-88670476D01*
X139572381Y-88337143D02*
X139572381Y-87765714D01*
X140572381Y-88051429D02*
X139572381Y-88051429D01*
X140191429Y-87432381D02*
X140191429Y-86670476D01*
X140572381Y-87051428D02*
X139810476Y-87051428D01*
X128572381Y-90099048D02*
X128572381Y-89908571D01*
X128620000Y-89813333D01*
X128715238Y-89718095D01*
X128905714Y-89670476D01*
X129239048Y-89670476D01*
X129429524Y-89718095D01*
X129524762Y-89813333D01*
X129572381Y-89908571D01*
X129572381Y-90099048D01*
X129524762Y-90194286D01*
X129429524Y-90289524D01*
X129239048Y-90337143D01*
X128905714Y-90337143D01*
X128715238Y-90289524D01*
X128620000Y-90194286D01*
X128572381Y-90099048D01*
X128572381Y-89241905D02*
X129381905Y-89241905D01*
X129477143Y-89194286D01*
X129524762Y-89146667D01*
X129572381Y-89051429D01*
X129572381Y-88860952D01*
X129524762Y-88765714D01*
X129477143Y-88718095D01*
X129381905Y-88670476D01*
X128572381Y-88670476D01*
X128572381Y-88337143D02*
X128572381Y-87765714D01*
X129572381Y-88051429D02*
X128572381Y-88051429D01*
X129191429Y-87432381D02*
X129191429Y-86670476D01*
X129572381Y-101122857D02*
X128572381Y-101122857D01*
X129572381Y-100646667D02*
X128572381Y-100646667D01*
X129572381Y-100075238D01*
X128572381Y-100075238D01*
X129191429Y-99599048D02*
X129191429Y-98837143D01*
X140572381Y-101122857D02*
X139572381Y-101122857D01*
X140572381Y-100646667D02*
X139572381Y-100646667D01*
X140572381Y-100075238D01*
X139572381Y-100075238D01*
X140191429Y-99599048D02*
X140191429Y-98837143D01*
X140572381Y-99218095D02*
X139810476Y-99218095D01*
X140803381Y-65531905D02*
X141612905Y-65531905D01*
X141708143Y-65484286D01*
X141755762Y-65436667D01*
X141803381Y-65341429D01*
X141803381Y-65150952D01*
X141755762Y-65055714D01*
X141708143Y-65008095D01*
X141612905Y-64960476D01*
X140803381Y-64960476D01*
X141136714Y-64055714D02*
X141803381Y-64055714D01*
X140755762Y-64293810D02*
X141470048Y-64531905D01*
X141470048Y-63912857D01*
X144652381Y-60889048D02*
X144652381Y-60698571D01*
X144700000Y-60603333D01*
X144795238Y-60508095D01*
X144985714Y-60460476D01*
X145319048Y-60460476D01*
X145509524Y-60508095D01*
X145604762Y-60603333D01*
X145652381Y-60698571D01*
X145652381Y-60889048D01*
X145604762Y-60984286D01*
X145509524Y-61079524D01*
X145319048Y-61127143D01*
X144985714Y-61127143D01*
X144795238Y-61079524D01*
X144700000Y-60984286D01*
X144652381Y-60889048D01*
X144652381Y-60031905D02*
X145461905Y-60031905D01*
X145557143Y-59984286D01*
X145604762Y-59936667D01*
X145652381Y-59841429D01*
X145652381Y-59650952D01*
X145604762Y-59555714D01*
X145557143Y-59508095D01*
X145461905Y-59460476D01*
X144652381Y-59460476D01*
X144652381Y-59127143D02*
X144652381Y-58555714D01*
X145652381Y-58841429D02*
X144652381Y-58841429D01*
X145271429Y-58222381D02*
X145271429Y-57460476D01*
X145652381Y-57841428D02*
X144890476Y-57841428D01*
X133652381Y-60889048D02*
X133652381Y-60698571D01*
X133700000Y-60603333D01*
X133795238Y-60508095D01*
X133985714Y-60460476D01*
X134319048Y-60460476D01*
X134509524Y-60508095D01*
X134604762Y-60603333D01*
X134652381Y-60698571D01*
X134652381Y-60889048D01*
X134604762Y-60984286D01*
X134509524Y-61079524D01*
X134319048Y-61127143D01*
X133985714Y-61127143D01*
X133795238Y-61079524D01*
X133700000Y-60984286D01*
X133652381Y-60889048D01*
X133652381Y-60031905D02*
X134461905Y-60031905D01*
X134557143Y-59984286D01*
X134604762Y-59936667D01*
X134652381Y-59841429D01*
X134652381Y-59650952D01*
X134604762Y-59555714D01*
X134557143Y-59508095D01*
X134461905Y-59460476D01*
X133652381Y-59460476D01*
X133652381Y-59127143D02*
X133652381Y-58555714D01*
X134652381Y-58841429D02*
X133652381Y-58841429D01*
X134271429Y-58222381D02*
X134271429Y-57460476D01*
X134652381Y-71912857D02*
X133652381Y-71912857D01*
X134652381Y-71436667D02*
X133652381Y-71436667D01*
X134652381Y-70865238D01*
X133652381Y-70865238D01*
X134271429Y-70389048D02*
X134271429Y-69627143D01*
X145652381Y-71912857D02*
X144652381Y-71912857D01*
X145652381Y-71436667D02*
X144652381Y-71436667D01*
X145652381Y-70865238D01*
X144652381Y-70865238D01*
X145271429Y-70389048D02*
X145271429Y-69627143D01*
X145652381Y-70008095D02*
X144890476Y-70008095D01*
X161123381Y-65531905D02*
X161932905Y-65531905D01*
X162028143Y-65484286D01*
X162075762Y-65436667D01*
X162123381Y-65341429D01*
X162123381Y-65150952D01*
X162075762Y-65055714D01*
X162028143Y-65008095D01*
X161932905Y-64960476D01*
X161123381Y-64960476D01*
X161123381Y-64008095D02*
X161123381Y-64484286D01*
X161599571Y-64531905D01*
X161551952Y-64484286D01*
X161504333Y-64389048D01*
X161504333Y-64150952D01*
X161551952Y-64055714D01*
X161599571Y-64008095D01*
X161694810Y-63960476D01*
X161932905Y-63960476D01*
X162028143Y-64008095D01*
X162075762Y-64055714D01*
X162123381Y-64150952D01*
X162123381Y-64389048D01*
X162075762Y-64484286D01*
X162028143Y-64531905D01*
X164972381Y-60889048D02*
X164972381Y-60698571D01*
X165020000Y-60603333D01*
X165115238Y-60508095D01*
X165305714Y-60460476D01*
X165639048Y-60460476D01*
X165829524Y-60508095D01*
X165924762Y-60603333D01*
X165972381Y-60698571D01*
X165972381Y-60889048D01*
X165924762Y-60984286D01*
X165829524Y-61079524D01*
X165639048Y-61127143D01*
X165305714Y-61127143D01*
X165115238Y-61079524D01*
X165020000Y-60984286D01*
X164972381Y-60889048D01*
X164972381Y-60031905D02*
X165781905Y-60031905D01*
X165877143Y-59984286D01*
X165924762Y-59936667D01*
X165972381Y-59841429D01*
X165972381Y-59650952D01*
X165924762Y-59555714D01*
X165877143Y-59508095D01*
X165781905Y-59460476D01*
X164972381Y-59460476D01*
X164972381Y-59127143D02*
X164972381Y-58555714D01*
X165972381Y-58841429D02*
X164972381Y-58841429D01*
X165591429Y-58222381D02*
X165591429Y-57460476D01*
X165972381Y-57841428D02*
X165210476Y-57841428D01*
X153972381Y-60889048D02*
X153972381Y-60698571D01*
X154020000Y-60603333D01*
X154115238Y-60508095D01*
X154305714Y-60460476D01*
X154639048Y-60460476D01*
X154829524Y-60508095D01*
X154924762Y-60603333D01*
X154972381Y-60698571D01*
X154972381Y-60889048D01*
X154924762Y-60984286D01*
X154829524Y-61079524D01*
X154639048Y-61127143D01*
X154305714Y-61127143D01*
X154115238Y-61079524D01*
X154020000Y-60984286D01*
X153972381Y-60889048D01*
X153972381Y-60031905D02*
X154781905Y-60031905D01*
X154877143Y-59984286D01*
X154924762Y-59936667D01*
X154972381Y-59841429D01*
X154972381Y-59650952D01*
X154924762Y-59555714D01*
X154877143Y-59508095D01*
X154781905Y-59460476D01*
X153972381Y-59460476D01*
X153972381Y-59127143D02*
X153972381Y-58555714D01*
X154972381Y-58841429D02*
X153972381Y-58841429D01*
X154591429Y-58222381D02*
X154591429Y-57460476D01*
X154972381Y-71912857D02*
X153972381Y-71912857D01*
X154972381Y-71436667D02*
X153972381Y-71436667D01*
X154972381Y-70865238D01*
X153972381Y-70865238D01*
X154591429Y-70389048D02*
X154591429Y-69627143D01*
X165972381Y-71912857D02*
X164972381Y-71912857D01*
X165972381Y-71436667D02*
X164972381Y-71436667D01*
X165972381Y-70865238D01*
X164972381Y-70865238D01*
X165591429Y-70389048D02*
X165591429Y-69627143D01*
X165972381Y-70008095D02*
X165210476Y-70008095D01*
X156718095Y-88733381D02*
X156718095Y-89542905D01*
X156765714Y-89638143D01*
X156813333Y-89685762D01*
X156908571Y-89733381D01*
X157099048Y-89733381D01*
X157194286Y-89685762D01*
X157241905Y-89638143D01*
X157289524Y-89542905D01*
X157289524Y-88733381D01*
X158194286Y-88733381D02*
X158003809Y-88733381D01*
X157908571Y-88781000D01*
X157860952Y-88828619D01*
X157765714Y-88971476D01*
X157718095Y-89161952D01*
X157718095Y-89542905D01*
X157765714Y-89638143D01*
X157813333Y-89685762D01*
X157908571Y-89733381D01*
X158099048Y-89733381D01*
X158194286Y-89685762D01*
X158241905Y-89638143D01*
X158289524Y-89542905D01*
X158289524Y-89304810D01*
X158241905Y-89209571D01*
X158194286Y-89161952D01*
X158099048Y-89114333D01*
X157908571Y-89114333D01*
X157813333Y-89161952D01*
X157765714Y-89209571D01*
X157718095Y-89304810D01*
X161360952Y-92582381D02*
X161551429Y-92582381D01*
X161646667Y-92630000D01*
X161741905Y-92725238D01*
X161789524Y-92915714D01*
X161789524Y-93249048D01*
X161741905Y-93439524D01*
X161646667Y-93534762D01*
X161551429Y-93582381D01*
X161360952Y-93582381D01*
X161265714Y-93534762D01*
X161170476Y-93439524D01*
X161122857Y-93249048D01*
X161122857Y-92915714D01*
X161170476Y-92725238D01*
X161265714Y-92630000D01*
X161360952Y-92582381D01*
X162218095Y-92582381D02*
X162218095Y-93391905D01*
X162265714Y-93487143D01*
X162313333Y-93534762D01*
X162408571Y-93582381D01*
X162599048Y-93582381D01*
X162694286Y-93534762D01*
X162741905Y-93487143D01*
X162789524Y-93391905D01*
X162789524Y-92582381D01*
X163122857Y-92582381D02*
X163694286Y-92582381D01*
X163408571Y-93582381D02*
X163408571Y-92582381D01*
X164027619Y-93201429D02*
X164789524Y-93201429D01*
X164408572Y-93582381D02*
X164408572Y-92820476D01*
X161360952Y-81582381D02*
X161551429Y-81582381D01*
X161646667Y-81630000D01*
X161741905Y-81725238D01*
X161789524Y-81915714D01*
X161789524Y-82249048D01*
X161741905Y-82439524D01*
X161646667Y-82534762D01*
X161551429Y-82582381D01*
X161360952Y-82582381D01*
X161265714Y-82534762D01*
X161170476Y-82439524D01*
X161122857Y-82249048D01*
X161122857Y-81915714D01*
X161170476Y-81725238D01*
X161265714Y-81630000D01*
X161360952Y-81582381D01*
X162218095Y-81582381D02*
X162218095Y-82391905D01*
X162265714Y-82487143D01*
X162313333Y-82534762D01*
X162408571Y-82582381D01*
X162599048Y-82582381D01*
X162694286Y-82534762D01*
X162741905Y-82487143D01*
X162789524Y-82391905D01*
X162789524Y-81582381D01*
X163122857Y-81582381D02*
X163694286Y-81582381D01*
X163408571Y-82582381D02*
X163408571Y-81582381D01*
X164027619Y-82201429D02*
X164789524Y-82201429D01*
X150337143Y-82582381D02*
X150337143Y-81582381D01*
X150813333Y-82582381D02*
X150813333Y-81582381D01*
X151384762Y-82582381D01*
X151384762Y-81582381D01*
X151860952Y-82201429D02*
X152622857Y-82201429D01*
X150337143Y-93582381D02*
X150337143Y-92582381D01*
X150813333Y-93582381D02*
X150813333Y-92582381D01*
X151384762Y-93582381D01*
X151384762Y-92582381D01*
X151860952Y-93201429D02*
X152622857Y-93201429D01*
X152241905Y-93582381D02*
X152241905Y-92820476D01*
%LPC*%
D15*
X110490000Y-114300000D03*
D16*
X113990000Y-114300000D03*
X117490000Y-114300000D03*
X120990000Y-114300000D03*
X124490000Y-114300000D03*
X127990000Y-114300000D03*
X131490000Y-114300000D03*
X134990000Y-114300000D03*
X138490000Y-114300000D03*
X141990000Y-114300000D03*
X145490000Y-114300000D03*
X148990000Y-114300000D03*
X152490000Y-114300000D03*
X155990000Y-114300000D03*
X159490000Y-114300000D03*
X162990000Y-114300000D03*
D17*
X106426000Y-84709000D03*
X108966000Y-84709000D03*
D18*
X119634000Y-84709000D03*
X117094000Y-84709000D03*
X119634000Y-103251000D03*
X117094000Y-103251000D03*
D17*
X108966000Y-103251000D03*
X106426000Y-103251000D03*
X124841000Y-55626000D03*
X124841000Y-58166000D03*
D18*
X124841000Y-68834000D03*
X124841000Y-66294000D03*
X106299000Y-68834000D03*
X106299000Y-66294000D03*
D17*
X106299000Y-58166000D03*
X106299000Y-55626000D03*
X128016000Y-84709000D03*
X130556000Y-84709000D03*
D18*
X141224000Y-84709000D03*
X138684000Y-84709000D03*
X141224000Y-103251000D03*
X138684000Y-103251000D03*
D17*
X130556000Y-103251000D03*
X128016000Y-103251000D03*
X133096000Y-55499000D03*
X135636000Y-55499000D03*
D18*
X146304000Y-55499000D03*
X143764000Y-55499000D03*
X146304000Y-74041000D03*
X143764000Y-74041000D03*
D17*
X135636000Y-74041000D03*
X133096000Y-74041000D03*
X153416000Y-55499000D03*
X155956000Y-55499000D03*
D18*
X166624000Y-55499000D03*
X164084000Y-55499000D03*
X166624000Y-74041000D03*
X164084000Y-74041000D03*
D17*
X155956000Y-74041000D03*
X153416000Y-74041000D03*
X166751000Y-81026000D03*
X166751000Y-83566000D03*
D18*
X166751000Y-94234000D03*
X166751000Y-91694000D03*
X148209000Y-94234000D03*
X148209000Y-91694000D03*
D17*
X148209000Y-83566000D03*
X148209000Y-81026000D03*
M02*
