M48
;DRILL file {KiCad 4.0.1-stable} date 10/11/2017 10:39:39 AM
;FORMAT={-:-/ absolute / metric / decimal}
FMAT,2
METRIC,TZ
T1C0.762
T2C1.200
T3C5.080
%
G90
G05
M71
T1
X106.299Y-55.626
X106.299Y-58.166
X106.299Y-66.294
X106.299Y-68.834
X106.426Y-84.709
X106.426Y-103.251
X108.966Y-84.709
X108.966Y-103.251
X117.094Y-84.709
X117.094Y-103.251
X119.634Y-84.709
X119.634Y-103.251
X124.841Y-55.626
X124.841Y-58.166
X124.841Y-66.294
X124.841Y-68.834
X128.016Y-84.709
X128.016Y-103.251
X130.556Y-84.709
X130.556Y-103.251
X133.096Y-55.499
X133.096Y-74.041
X135.636Y-55.499
X135.636Y-74.041
X138.684Y-84.709
X138.684Y-103.251
X141.224Y-84.709
X141.224Y-103.251
X143.764Y-55.499
X143.764Y-74.041
X146.304Y-55.499
X146.304Y-74.041
X148.209Y-81.026
X148.209Y-83.566
X148.209Y-91.694
X148.209Y-94.234
X153.416Y-55.499
X153.416Y-74.041
X155.956Y-55.499
X155.956Y-74.041
X164.084Y-55.499
X164.084Y-74.041
X166.624Y-55.499
X166.624Y-74.041
X166.751Y-81.026
X166.751Y-83.566
X166.751Y-91.694
X166.751Y-94.234
T2
X110.49Y-114.3
X113.99Y-114.3
X117.49Y-114.3
X120.99Y-114.3
X124.49Y-114.3
X127.99Y-114.3
X131.49Y-114.3
X134.99Y-114.3
X138.49Y-114.3
X141.99Y-114.3
X145.49Y-114.3
X148.99Y-114.3
X152.49Y-114.3
X155.99Y-114.3
X159.49Y-114.3
X162.99Y-114.3
T3
X119.38Y-76.2
X154.94Y-101.6
T0
M30
