M48
;DRILL file {KiCad 4.0.7} date 09/30/17 17:29:42
;FORMAT={-:-/ absolute / inch / decimal}
FMAT,2
INCH,TZ
T1C0.030
T2C0.047
%
G90
G05
M72
T1
X4.185Y-2.19
X4.185Y-2.29
X4.185Y-2.61
X4.185Y-2.71
X4.19Y-3.335
X4.19Y-4.065
X4.29Y-3.335
X4.29Y-4.065
X4.61Y-3.335
X4.61Y-4.065
X4.71Y-3.335
X4.71Y-4.065
X4.915Y-2.19
X4.915Y-2.29
X4.915Y-2.61
X4.915Y-2.71
X5.04Y-3.335
X5.04Y-4.065
X5.14Y-3.335
X5.14Y-4.065
X5.24Y-2.185
X5.24Y-2.915
X5.34Y-2.185
X5.34Y-2.915
X5.46Y-3.335
X5.46Y-4.065
X5.56Y-3.335
X5.56Y-4.065
X5.66Y-2.185
X5.66Y-2.915
X5.76Y-2.185
X5.76Y-2.915
X5.835Y-3.19
X5.835Y-3.29
X5.835Y-3.61
X5.835Y-3.71
X6.04Y-2.185
X6.04Y-2.915
X6.14Y-2.185
X6.14Y-2.915
X6.46Y-2.185
X6.46Y-2.915
X6.56Y-2.185
X6.56Y-2.915
X6.565Y-3.19
X6.565Y-3.29
X6.565Y-3.61
X6.565Y-3.71
T2
X4.35Y-4.5
X4.4878Y-4.5
X4.6256Y-4.5
X4.7634Y-4.5
X4.9012Y-4.5
X5.039Y-4.5
X5.1768Y-4.5
X5.3146Y-4.5
X5.4524Y-4.5
X5.5902Y-4.5
X5.728Y-4.5
X5.8657Y-4.5
X6.0035Y-4.5
X6.1413Y-4.5
X6.2791Y-4.5
X6.4169Y-4.5
T0
M30
