%TF.GenerationSoftware,KiCad,Pcbnew,4.0.1-stable*%
%TF.CreationDate,2017-10-11T10:39:37-05:00*%
%TF.ProjectId,PowerBox,506F776572426F782E6B696361645F70,rev?*%
%TF.FileFunction,Copper,L1,Top,Signal*%
%FSLAX46Y46*%
G04 Gerber Fmt 4.6, Leading zero omitted, Abs format (unit mm)*
G04 Created by KiCad (PCBNEW 4.0.1-stable) date 10/11/2017 10:39:37 AM*
%MOMM*%
G01*
G04 APERTURE LIST*
%ADD10C,0.100000*%
%ADD11R,2.400000X2.400000*%
%ADD12C,2.400000*%
%ADD13C,1.524000*%
%ADD14R,1.524000X1.524000*%
%ADD15C,6.350000*%
%ADD16C,1.270000*%
G04 APERTURE END LIST*
D10*
D11*
X110490000Y-114300000D03*
D12*
X113990000Y-114300000D03*
X117490000Y-114300000D03*
X120990000Y-114300000D03*
X124490000Y-114300000D03*
X127990000Y-114300000D03*
X131490000Y-114300000D03*
X134990000Y-114300000D03*
X138490000Y-114300000D03*
X141990000Y-114300000D03*
X145490000Y-114300000D03*
X148990000Y-114300000D03*
X152490000Y-114300000D03*
X155990000Y-114300000D03*
X159490000Y-114300000D03*
X162990000Y-114300000D03*
D13*
X106426000Y-84709000D03*
X108966000Y-84709000D03*
D14*
X119634000Y-84709000D03*
X117094000Y-84709000D03*
X119634000Y-103251000D03*
X117094000Y-103251000D03*
D13*
X108966000Y-103251000D03*
X106426000Y-103251000D03*
X124841000Y-55626000D03*
X124841000Y-58166000D03*
D14*
X124841000Y-68834000D03*
X124841000Y-66294000D03*
X106299000Y-68834000D03*
X106299000Y-66294000D03*
D13*
X106299000Y-58166000D03*
X106299000Y-55626000D03*
X128016000Y-84709000D03*
X130556000Y-84709000D03*
D14*
X141224000Y-84709000D03*
X138684000Y-84709000D03*
X141224000Y-103251000D03*
X138684000Y-103251000D03*
D13*
X130556000Y-103251000D03*
X128016000Y-103251000D03*
X133096000Y-55499000D03*
X135636000Y-55499000D03*
D14*
X146304000Y-55499000D03*
X143764000Y-55499000D03*
X146304000Y-74041000D03*
X143764000Y-74041000D03*
D13*
X135636000Y-74041000D03*
X133096000Y-74041000D03*
X153416000Y-55499000D03*
X155956000Y-55499000D03*
D14*
X166624000Y-55499000D03*
X164084000Y-55499000D03*
X166624000Y-74041000D03*
X164084000Y-74041000D03*
D13*
X155956000Y-74041000D03*
X153416000Y-74041000D03*
X166751000Y-81026000D03*
X166751000Y-83566000D03*
D14*
X166751000Y-94234000D03*
X166751000Y-91694000D03*
X148209000Y-94234000D03*
X148209000Y-91694000D03*
D13*
X148209000Y-83566000D03*
X148209000Y-81026000D03*
D15*
X154940000Y-101600000D03*
X119380000Y-76200000D03*
D16*
X159490000Y-114300000D02*
X162990000Y-114300000D01*
X143764000Y-74041000D02*
X143764000Y-78486000D01*
X106299000Y-72009000D02*
X106299000Y-68834000D01*
X116840000Y-82550000D02*
X106299000Y-72009000D01*
X139700000Y-82550000D02*
X116840000Y-82550000D01*
X143764000Y-78486000D02*
X139700000Y-82550000D01*
X146304000Y-74041000D02*
X146304000Y-73406000D01*
X146304000Y-73406000D02*
X148590000Y-71120000D01*
X161163000Y-71120000D02*
X164084000Y-74041000D01*
X148590000Y-71120000D02*
X161163000Y-71120000D01*
X106299000Y-66294000D02*
X106299000Y-68834000D01*
X143764000Y-74041000D02*
X146304000Y-74041000D01*
X148209000Y-91694000D02*
X148209000Y-89916000D01*
X148209000Y-89916000D02*
X164084000Y-74041000D01*
X164084000Y-74041000D02*
X166624000Y-74041000D01*
X141224000Y-103251000D02*
X141224000Y-101219000D01*
X141224000Y-101219000D02*
X148209000Y-94234000D01*
X148209000Y-94234000D02*
X148209000Y-91694000D01*
X119634000Y-103251000D02*
X119761000Y-103251000D01*
X119761000Y-103251000D02*
X124460000Y-107950000D01*
X133985000Y-107950000D02*
X138684000Y-103251000D01*
X124460000Y-107950000D02*
X133985000Y-107950000D01*
X138684000Y-103251000D02*
X141224000Y-103251000D01*
X113990000Y-114300000D02*
X113990000Y-106355000D01*
X113990000Y-106355000D02*
X117094000Y-103251000D01*
X117094000Y-103251000D02*
X119634000Y-103251000D01*
X128270000Y-62230000D02*
X116840000Y-62230000D01*
X130810000Y-64770000D02*
X128270000Y-62230000D01*
X130810000Y-71755000D02*
X130810000Y-64770000D01*
X133096000Y-74041000D02*
X130810000Y-71755000D01*
X112776000Y-58166000D02*
X106299000Y-58166000D01*
X116840000Y-62230000D02*
X112776000Y-58166000D01*
X106299000Y-58166000D02*
X106299000Y-60071000D01*
X106299000Y-60071000D02*
X104140000Y-62230000D01*
X104140000Y-62230000D02*
X104140000Y-100965000D01*
X104140000Y-100965000D02*
X106426000Y-103251000D01*
X135636000Y-74041000D02*
X133096000Y-74041000D01*
X106299000Y-58166000D02*
X106299000Y-55626000D01*
X148209000Y-81026000D02*
X148209000Y-79248000D01*
X148209000Y-79248000D02*
X153416000Y-74041000D01*
X153416000Y-74041000D02*
X155956000Y-74041000D01*
X148209000Y-81026000D02*
X148209000Y-83566000D01*
X130556000Y-103251000D02*
X134239000Y-103251000D01*
X144780000Y-86995000D02*
X148209000Y-83566000D01*
X144780000Y-92710000D02*
X144780000Y-86995000D01*
X134239000Y-103251000D02*
X144780000Y-92710000D01*
X130556000Y-103251000D02*
X128016000Y-103251000D01*
X128016000Y-103251000D02*
X125095000Y-100330000D01*
X125095000Y-100330000D02*
X111887000Y-100330000D01*
X111887000Y-100330000D02*
X108966000Y-103251000D01*
X106426000Y-103251000D02*
X108966000Y-103251000D01*
X108966000Y-103251000D02*
X110490000Y-104775000D01*
X110490000Y-104775000D02*
X110490000Y-114300000D01*
M02*
