%TF.GenerationSoftware,KiCad,Pcbnew,4.0.1-stable*%
%TF.CreationDate,2017-10-10T15:11:44-05:00*%
%TF.ProjectId,PowerBox,506F776572426F782E6B696361645F70,rev?*%
%TF.FileFunction,Soldermask,Top*%
%FSLAX46Y46*%
G04 Gerber Fmt 4.6, Leading zero omitted, Abs format (unit mm)*
G04 Created by KiCad (PCBNEW 4.0.1-stable) date 10/10/2017 3:11:44 PM*
%MOMM*%
G01*
G04 APERTURE LIST*
%ADD10C,0.100000*%
%ADD11R,2.800000X2.800000*%
%ADD12C,2.800000*%
%ADD13C,1.924000*%
%ADD14R,1.924000X1.924000*%
G04 APERTURE END LIST*
D10*
D11*
X110490000Y-114300000D03*
D12*
X113990000Y-114300000D03*
X117490000Y-114300000D03*
X120990000Y-114300000D03*
X124490000Y-114300000D03*
X127990000Y-114300000D03*
X131490000Y-114300000D03*
X134990000Y-114300000D03*
X138490000Y-114300000D03*
X141990000Y-114300000D03*
X145490000Y-114300000D03*
X148990000Y-114300000D03*
X152490000Y-114300000D03*
X155990000Y-114300000D03*
X159490000Y-114300000D03*
X162990000Y-114300000D03*
D13*
X106426000Y-84709000D03*
X108966000Y-84709000D03*
D14*
X119634000Y-84709000D03*
X117094000Y-84709000D03*
X119634000Y-103251000D03*
X117094000Y-103251000D03*
D13*
X108966000Y-103251000D03*
X106426000Y-103251000D03*
X124841000Y-55626000D03*
X124841000Y-58166000D03*
D14*
X124841000Y-68834000D03*
X124841000Y-66294000D03*
X106299000Y-68834000D03*
X106299000Y-66294000D03*
D13*
X106299000Y-58166000D03*
X106299000Y-55626000D03*
X128016000Y-84709000D03*
X130556000Y-84709000D03*
D14*
X141224000Y-84709000D03*
X138684000Y-84709000D03*
X141224000Y-103251000D03*
X138684000Y-103251000D03*
D13*
X130556000Y-103251000D03*
X128016000Y-103251000D03*
X133096000Y-55499000D03*
X135636000Y-55499000D03*
D14*
X146304000Y-55499000D03*
X143764000Y-55499000D03*
X146304000Y-74041000D03*
X143764000Y-74041000D03*
D13*
X135636000Y-74041000D03*
X133096000Y-74041000D03*
X153416000Y-55499000D03*
X155956000Y-55499000D03*
D14*
X166624000Y-55499000D03*
X164084000Y-55499000D03*
X166624000Y-74041000D03*
X164084000Y-74041000D03*
D13*
X155956000Y-74041000D03*
X153416000Y-74041000D03*
X166751000Y-81026000D03*
X166751000Y-83566000D03*
D14*
X166751000Y-94234000D03*
X166751000Y-91694000D03*
X148209000Y-94234000D03*
X148209000Y-91694000D03*
D13*
X148209000Y-83566000D03*
X148209000Y-81026000D03*
M02*
