%TF.GenerationSoftware,KiCad,Pcbnew,4.0.1-stable*%
%TF.CreationDate,2017-10-11T10:39:37-05:00*%
%TF.ProjectId,PowerBox,506F776572426F782E6B696361645F70,rev?*%
%TF.FileFunction,Copper,L2,Bot,Signal*%
%FSLAX46Y46*%
G04 Gerber Fmt 4.6, Leading zero omitted, Abs format (unit mm)*
G04 Created by KiCad (PCBNEW 4.0.1-stable) date 10/11/2017 10:39:37 AM*
%MOMM*%
G01*
G04 APERTURE LIST*
%ADD10C,0.100000*%
%ADD11R,2.400000X2.400000*%
%ADD12C,2.400000*%
%ADD13C,1.524000*%
%ADD14R,1.524000X1.524000*%
%ADD15C,6.350000*%
%ADD16C,1.270000*%
G04 APERTURE END LIST*
D10*
D11*
X110490000Y-114300000D03*
D12*
X113990000Y-114300000D03*
X117490000Y-114300000D03*
X120990000Y-114300000D03*
X124490000Y-114300000D03*
X127990000Y-114300000D03*
X131490000Y-114300000D03*
X134990000Y-114300000D03*
X138490000Y-114300000D03*
X141990000Y-114300000D03*
X145490000Y-114300000D03*
X148990000Y-114300000D03*
X152490000Y-114300000D03*
X155990000Y-114300000D03*
X159490000Y-114300000D03*
X162990000Y-114300000D03*
D13*
X106426000Y-84709000D03*
X108966000Y-84709000D03*
D14*
X119634000Y-84709000D03*
X117094000Y-84709000D03*
X119634000Y-103251000D03*
X117094000Y-103251000D03*
D13*
X108966000Y-103251000D03*
X106426000Y-103251000D03*
X124841000Y-55626000D03*
X124841000Y-58166000D03*
D14*
X124841000Y-68834000D03*
X124841000Y-66294000D03*
X106299000Y-68834000D03*
X106299000Y-66294000D03*
D13*
X106299000Y-58166000D03*
X106299000Y-55626000D03*
X128016000Y-84709000D03*
X130556000Y-84709000D03*
D14*
X141224000Y-84709000D03*
X138684000Y-84709000D03*
X141224000Y-103251000D03*
X138684000Y-103251000D03*
D13*
X130556000Y-103251000D03*
X128016000Y-103251000D03*
X133096000Y-55499000D03*
X135636000Y-55499000D03*
D14*
X146304000Y-55499000D03*
X143764000Y-55499000D03*
X146304000Y-74041000D03*
X143764000Y-74041000D03*
D13*
X135636000Y-74041000D03*
X133096000Y-74041000D03*
X153416000Y-55499000D03*
X155956000Y-55499000D03*
D14*
X166624000Y-55499000D03*
X164084000Y-55499000D03*
X166624000Y-74041000D03*
X164084000Y-74041000D03*
D13*
X155956000Y-74041000D03*
X153416000Y-74041000D03*
X166751000Y-81026000D03*
X166751000Y-83566000D03*
D14*
X166751000Y-94234000D03*
X166751000Y-91694000D03*
X148209000Y-94234000D03*
X148209000Y-91694000D03*
D13*
X148209000Y-83566000D03*
X148209000Y-81026000D03*
D15*
X154940000Y-101600000D03*
X119380000Y-76200000D03*
D16*
X106426000Y-84709000D02*
X108966000Y-84709000D01*
X108966000Y-84709000D02*
X111760000Y-87503000D01*
X111760000Y-87503000D02*
X111760000Y-106680000D01*
X111760000Y-106680000D02*
X117490000Y-112410000D01*
X117490000Y-112410000D02*
X117490000Y-114300000D01*
X114300000Y-87503000D02*
X114300000Y-104140000D01*
X117094000Y-84709000D02*
X114300000Y-87503000D01*
X120990000Y-110830000D02*
X120990000Y-114300000D01*
X114300000Y-104140000D02*
X120990000Y-110830000D01*
X119634000Y-84709000D02*
X117094000Y-84709000D01*
X120650000Y-113960000D02*
X120990000Y-114300000D01*
X123190000Y-83820000D02*
X123190000Y-82550000D01*
X124841000Y-58166000D02*
X121920000Y-61087000D01*
X123190000Y-109220000D02*
X124490000Y-110520000D01*
X124490000Y-110520000D02*
X124490000Y-114300000D01*
X123190000Y-109220000D02*
X123190000Y-83820000D01*
X121920000Y-69850000D02*
X121920000Y-61087000D01*
X127000000Y-74930000D02*
X121920000Y-69850000D01*
X127000000Y-78740000D02*
X127000000Y-74930000D01*
X123190000Y-82550000D02*
X127000000Y-78740000D01*
X124841000Y-55626000D02*
X124841000Y-58166000D01*
X125730000Y-106680000D02*
X125730000Y-83820000D01*
X127990000Y-108940000D02*
X125730000Y-106680000D01*
X124841000Y-68834000D02*
X125730000Y-69723000D01*
X127990000Y-108940000D02*
X127990000Y-114300000D01*
X129540000Y-73533000D02*
X125730000Y-69723000D01*
X129540000Y-80010000D02*
X129540000Y-73533000D01*
X125730000Y-83820000D02*
X129540000Y-80010000D01*
X124841000Y-68834000D02*
X124841000Y-66294000D01*
X131490000Y-111125000D02*
X131490000Y-110445000D01*
X132715000Y-86868000D02*
X130556000Y-84709000D01*
X132715000Y-109220000D02*
X132715000Y-86868000D01*
X131490000Y-110445000D02*
X132715000Y-109220000D01*
X128016000Y-84709000D02*
X130556000Y-84709000D01*
X131490000Y-111080000D02*
X131490000Y-111125000D01*
X131490000Y-111125000D02*
X131490000Y-114300000D01*
X141224000Y-84709000D02*
X138684000Y-84709000D01*
X138684000Y-84709000D02*
X134990000Y-88403000D01*
X134990000Y-88403000D02*
X134990000Y-114300000D01*
X135636000Y-55499000D02*
X136779000Y-55499000D01*
X138490000Y-111700000D02*
X138490000Y-114300000D01*
X144780000Y-105410000D02*
X138490000Y-111700000D01*
X144780000Y-83820000D02*
X144780000Y-105410000D01*
X140970000Y-80010000D02*
X144780000Y-83820000D01*
X140970000Y-59690000D02*
X140970000Y-80010000D01*
X136779000Y-55499000D02*
X140970000Y-59690000D01*
X133096000Y-55499000D02*
X135636000Y-55499000D01*
X146304000Y-55499000D02*
X148209000Y-55499000D01*
X141990000Y-112010000D02*
X141990000Y-114300000D01*
X147320000Y-106680000D02*
X141990000Y-112010000D01*
X147320000Y-99060000D02*
X147320000Y-106680000D01*
X152400000Y-93980000D02*
X147320000Y-99060000D01*
X152400000Y-80010000D02*
X152400000Y-93980000D01*
X149860000Y-77470000D02*
X152400000Y-80010000D01*
X149860000Y-57150000D02*
X149860000Y-77470000D01*
X148209000Y-55499000D02*
X149860000Y-57150000D01*
X143764000Y-55499000D02*
X146304000Y-55499000D01*
X145490000Y-114300000D02*
X145490000Y-111050000D01*
X155956000Y-56896000D02*
X155956000Y-55499000D01*
X158750000Y-59690000D02*
X155956000Y-56896000D01*
X158750000Y-90170000D02*
X158750000Y-59690000D01*
X149860000Y-99060000D02*
X158750000Y-90170000D01*
X149860000Y-106680000D02*
X149860000Y-99060000D01*
X145490000Y-111050000D02*
X149860000Y-106680000D01*
X155956000Y-55499000D02*
X155956000Y-55626000D01*
X153416000Y-55499000D02*
X155956000Y-55499000D01*
X148990000Y-114300000D02*
X148990000Y-112630000D01*
X166624000Y-66929000D02*
X166624000Y-55499000D01*
X169545000Y-69850000D02*
X166624000Y-66929000D01*
X169545000Y-75565000D02*
X169545000Y-69850000D01*
X167640000Y-77470000D02*
X169545000Y-75565000D01*
X165735000Y-77470000D02*
X167640000Y-77470000D01*
X162560000Y-80645000D02*
X165735000Y-77470000D01*
X162560000Y-106045000D02*
X162560000Y-80645000D01*
X161290000Y-107315000D02*
X162560000Y-106045000D01*
X154305000Y-107315000D02*
X161290000Y-107315000D01*
X148990000Y-112630000D02*
X154305000Y-107315000D01*
X164084000Y-55499000D02*
X166624000Y-55499000D01*
X164465000Y-89535000D02*
X164465000Y-85852000D01*
X154940000Y-109220000D02*
X163195000Y-109220000D01*
X154940000Y-109220000D02*
X152490000Y-111670000D01*
X152490000Y-114300000D02*
X152490000Y-111670000D01*
X164465000Y-107950000D02*
X164465000Y-90805000D01*
X163195000Y-109220000D02*
X164465000Y-107950000D01*
X164465000Y-90805000D02*
X164465000Y-89535000D01*
X164465000Y-85852000D02*
X166751000Y-83566000D01*
X166751000Y-81026000D02*
X166751000Y-83566000D01*
X155990000Y-114300000D02*
X155990000Y-112615000D01*
X166751000Y-109474000D02*
X166751000Y-94234000D01*
X165100000Y-111125000D02*
X166751000Y-109474000D01*
X157480000Y-111125000D02*
X165100000Y-111125000D01*
X155990000Y-112615000D02*
X157480000Y-111125000D01*
X166751000Y-91694000D02*
X166751000Y-94234000D01*
M02*
